<!-- Generated by IcoMoon.io -->
<svg version="1.1" xmlns="http://www.w3.org/2000/svg" width="32" height="32" viewBox="0 0 32 32">
<title>apache</title>
<path d="M20.908 17.349c0.649-0.307 1.272-0.645 1.862-1.020 0.021-0.014 0.042-0.026 0.062-0.039-0.241 0.612-0.123 1.684-0.12 1.68 0.38-1.112 0.849-2.090 1.561-2.712 0.272 0.243 0.478 0.699 0.647 1.277 0.084-0.796-0.060-1.241-0.13-1.403 0.35 0.415 0.984 0.646 1.667 0.847-0.767-0.466-1.274-0.925-1.474-1.376 2.188-0.673 4.558-1.478 7.045-2.371-0.195-0.147-0.405-0.165-0.623-0.101-0.449 0.163-3.402 1.227-7.42 2.442-0.114 0.035-0.229 0.069-0.345 0.104-0.032 0.010-0.065 0.019-0.097 0.029-0.422 0.126-0.854 0.254-1.296 0.382-0.101 0.029-0.201 0.058-0.303 0.087-0.002 0.001-0.004 0.001-0.006 0.002l-1.106 2.208c0.023-0.011 0.048-0.023 0.072-0.035v0zM0.615 19.716c0.611 0.231 1.269 0.291 1.913 0.361 0.38 0.036 0.76 0.061 1.141 0.080 0.262-0.548 0.523-1.096 0.785-1.644-1.009 0.028-2.021 0.006-3.023-0.113 0.991 0.099 1.99 0.059 2.983 0.006-0.717-0.854-1.502-1.647-2.304-2.421-0.753 0.379-1.483 0.908-1.878 1.673-0.202 0.466-0.319 1.010-0.154 1.505 0.088 0.253 0.29 0.453 0.537 0.553h0l0-0zM8.85 15.408c-0.005-0.004-0.009-0.009-0.014-0.013l0.084 0.091c0.007 0.004 0.014 0.007 0.021 0.012-0.030-0.030-0.061-0.060-0.091-0.089v0 0zM11.684 14.39c0.054 0.047 0.106 0.097 0.158 0.148-0.051-0.051-0.104-0.101-0.158-0.148zM20.401 15.291c-0.025 0.007-0.050 0.014-0.074 0.021-0.51 0.144-1.007 0.282-1.494 0.413-0.546 0.147-1.077 0.287-1.594 0.419-0.545 0.14-1.074 0.271-1.588 0.395-0.539 0.13-1.061 0.251-1.566 0.364-0.411 0.092-0.81 0.179-1.199 0.26-0.129 0.027-0.258 0.054-0.385 0.080-0.252 0.052-0.501 0.102-0.744 0.15-0.225 0.044-0.445 0.086-0.662 0.127-0.072 0.014-0.144 0.026-0.215 0.040-0.012 0.002-0.023 0.004-0.035 0.007l0.071 0.077-0.082 0.164c0.018-0.003 0.035-0.006 0.053-0.009 0.328-0.057 0.657-0.116 0.988-0.179 0.191-0.036 0.383-0.073 0.574-0.11 0.532-0.104 1.065-0.214 1.598-0.329 0.539-0.116 1.077-0.237 1.614-0.363 0.527-0.122 1.051-0.249 1.572-0.378 0.52-0.129 1.036-0.262 1.547-0.395 0.534-0.14 1.060-0.281 1.577-0.424 0.117-0.032 0.233-0.064 0.35-0.097 0.417-0.116 0.828-0.232 1.232-0.348l0.13-0.26-0.080-0.087c-0.012 0.004-0.024 0.008-0.036 0.011-0.53 0.157-1.048 0.307-1.554 0.45v0l0 0.001zM11.88 14.577c-0-0.001-0.001-0-0.001-0.001s0 0.001 0.001 0.001zM13.178 13.967c0.081 0.076 0.163 0.154 0.247 0.235 0 0.001 0.001 0.001 0.002 0.001-0.041-0.041-0.082-0.082-0.124-0.122s-0.083-0.077-0.125-0.114v0l0-0zM13.178 13.967c0.081 0.076 0.163 0.154 0.247 0.235 0 0.001 0.001 0.001 0.002 0.001-0.041-0.041-0.082-0.082-0.124-0.122s-0.083-0.077-0.125-0.114v0l0-0zM11.877 14.576c0 0 0 0.001 0.001 0s0.001 0 0.001 0.001c-0.013-0.013-0.026-0.025-0.038-0.039-0.052-0.052-0.104-0.102-0.158-0.148 0.063 0.061 0.128 0.123 0.193 0.186v0l0-0zM11.877 14.576c0 0 0 0.001 0.001 0s0.001 0 0.001 0.001c-0.013-0.013-0.026-0.025-0.038-0.039-0.052-0.052-0.104-0.102-0.158-0.148 0.063 0.061 0.128 0.123 0.193 0.186v0l0-0zM9.292 18.056c-0.543 0.080-1.080 0.151-1.608 0.213-0.548 0.064-1.087 0.116-1.615 0.157-0.031 0.003-0.062 0.005-0.093 0.008-0.519 0.039-1.027 0.066-1.521 0.079l-0.785 1.644c0.101 0.005 0.204 0.009 0.308 0.013 0.392 0.015 0.809 0.024 1.246 0.026 0.492 0.002 1.011-0.004 1.549-0.019 0.497-0.014 1.012-0.037 1.539-0.068 0.449-0.027 0.907-0.059 1.372-0.099 0.017-0.002 0.034-0.003 0.052-0.004 0.427-0.71 0.733-1.464 1.1-2.197-0.518 0.089-1.033 0.172-1.543 0.247v0-0zM20.359 15.622c-0.518 0.143-1.044 0.284-1.577 0.424-0.51 0.134-1.026 0.265-1.547 0.395s-1.045 0.255-1.572 0.378c-0.536 0.125-1.075 0.246-1.614 0.363-0.533 0.115-1.066 0.225-1.598 0.329-0.192 0.038-0.383 0.074-0.574 0.11-0.331 0.062-0.66 0.122-0.988 0.179-0.018 0.003-0.035 0.006-0.053 0.009l-1.1 2.197c0.035-0.003 0.069-0.006 0.104-0.009 0.493-0.044 0.993-0.094 1.498-0.154 0.51-0.060 1.024-0.129 1.539-0.206 0.435-0.065 0.87-0.136 1.304-0.214 0.088-0.016 0.175-0.032 0.262-0.048 0.544-0.102 1.060-0.213 1.549-0.33 0.554-0.132 1.073-0.272 1.557-0.416 0.318-0.094 0.622-0.191 0.911-0.288 0.245-0.085 0.488-0.173 0.727-0.263 0.566-0.213 1.116-0.443 1.65-0.693 0.373-0.724 0.758-1.46 1.106-2.208-0.404 0.116-0.816 0.233-1.233 0.349-0.116 0.032-0.233 0.065-0.35 0.097h-0l-0.001 0zM10.881 17.56c0.071-0.013 0.143-0.027 0.215-0.040 0.216-0.041 0.437-0.083 0.662-0.127 0.243-0.048 0.491-0.098 0.744-0.15 0.127-0.026 0.255-0.053 0.385-0.080 0.388-0.082 0.788-0.169 1.199-0.26 0.505-0.113 1.027-0.234 1.566-0.364 0.514-0.124 1.043-0.255 1.588-0.395 0.517-0.132 1.049-0.272 1.594-0.419 0.487-0.132 0.984-0.269 1.494-0.413 0.025-0.007 0.050-0.014 0.074-0.021 0.506-0.143 1.024-0.293 1.553-0.45 0.012-0.004 0.024-0.008 0.036-0.011l-0.613-0.662c0.008 0.016 0.017 0.032 0.025 0.049-0.746-0.782-2.239-1.45-3.583-1.601-0.619-0.070-1.281-0.059-1.999 0.030-0.535 0.066-1.1 0.175-1.704 0.327-0.527 0.133-1.083 0.297-1.671 0.494 0.251 0.121 0.496 0.291 0.734 0.501 0.041 0.037 0.084 0.075 0.125 0.114s0.083 0.080 0.124 0.122c-0-0.001-0.001-0.001-0.002-0.001-0.905-0.574-1.878-0.639-2.882-0.465 0.301 0.105 0.744 0.308 1.14 0.653 0.054 0.047 0.106 0.097 0.158 0.148 0.013 0.013 0.026 0.025 0.038 0.039-0-0.001-0.001-0-0.001-0.001s-0-0.001-0.001-0c-0.324-0.192-0.628-0.331-0.934-0.421-0.065-0.019-0.131-0.036-0.197-0.051-0.1-0.022-0.201-0.039-0.302-0.052-0.065-0.008-0.13-0.014-0.196-0.018-0.155-0.009-0.313-0.008-0.477 0.004-0.050 0.004-0.1 0.008-0.151 0.014-0.071 0.012-0.141 0.024-0.209 0.036-0.309 0.055-0.577 0.115-0.807 0.174-0.115 0.030-0.22 0.059-0.316 0.089-0.038 0.012-0.075 0.023-0.111 0.035-0.106 0.035-0.199 0.067-0.279 0.098-0.119 0.046-0.21 0.088-0.274 0.122 0.042 0.011 0.086 0.027 0.133 0.046 0.325 0.135 0.765 0.454 1.076 0.744v0c0.005 0.004 0.009 0.009 0.014 0.013 0.030 0.029 0.061 0.060 0.092 0.089-0.007-0.004-0.014-0.005-0.021-0.010l1.927 2.078c0.011-0.002 0.022-0.004 0.034-0.006v0l-0.001-0.001zM4.414 18.405c0.458-0.028 0.972-0.068 1.545-0.126 0.030-0.003 0.061-0.006 0.091-0.009 0.495-0.051 1.034-0.114 1.617-0.193 0.504-0.067 1.039-0.146 1.609-0.239 0.497-0.080 1.021-0.17 1.571-0.272l-1.906-2.068c-0.792-0.435-1.308-0.538-1.917-0.53-0.166 0.005-0.337 0.014-0.512 0.025-0.535 0.036-1.104 0.105-1.653 0.196-0.53 0.088-1.039 0.196-1.481 0.318-0.281 0.077-0.534 0.16-0.747 0.245-0.188 0.075-0.361 0.153-0.522 0.234 0.804 0.77 1.748 1.743 2.304 2.42 0 0-0.001 0-0.001 0zM13.303 14.082c0.041 0.039 0.083 0.080 0.124 0.122-0.041-0.042-0.082-0.082-0.124-0.122zM13.303 14.082c0.041 0.039 0.083 0.080 0.124 0.122-0.041-0.042-0.082-0.082-0.124-0.122zM13.303 14.082c0.041 0.039 0.083 0.080 0.124 0.122-0.041-0.042-0.082-0.082-0.124-0.122zM11.88 14.577c-0.013-0.013-0.026-0.025-0.038-0.039 0.012 0.013 0.025 0.025 0.038 0.039zM11.88 14.577c-0.013-0.013-0.026-0.025-0.038-0.039 0.012 0.013 0.025 0.025 0.038 0.039zM11.88 14.577c-0.013-0.013-0.026-0.025-0.038-0.039 0.012 0.013 0.025 0.025 0.038 0.039zM11.879 14.576c0 0-0-0.001-0.001-0s0 0.001 0.001 0zM11.879 14.576c0 0-0-0.001-0.001-0s0 0.001 0.001 0zM11.879 14.576c0 0-0-0.001-0.001-0s0 0.001 0.001 0zM22.222 14.761c0.412-0.123 0.83-0.249 1.255-0.38 0.006-0.002 0.012-0.004 0.019-0.006 0.060-0.018 0.12-0.037 0.18-0.055 0.287-0.089 0.543-0.171 1.127-0.356-0.075-0.351 0.084-0.796 0.294-1.261-0.355 0.296-0.589 0.707-0.643 1.198-0.901-1.338-2.056-2.211-3.43-2.085-0.123 0.011-0.246 0.030-0.372 0.057 0.526 0.015 0.909 0.236 1.327 0.873 0.001 0.001 0.003 0.002 0.005 0.003-0.001-0.001-0.003-0.002-0.005-0.003-1.071-0.601-1.793-0.767-2.73-0.69-0.222 0.018-0.456 0.049-0.711 0.092 1.393 0.188 2.3 0.93 2.837 2.021l0.025 0.048 0.588 0.614c0.077-0.022 0.154-0.045 0.232-0.068l-0-0h-0z"></path>
</svg>
