<!-- Generated by IcoMoon.io -->
<svg version="1.1" xmlns="http://www.w3.org/2000/svg" width="32" height="32" viewBox="0 0 32 32">
<title>arrows-seal</title>
<path d="M32.020 16c0 8.837-7.163 16-16 16s-16-7.163-16-16 7.163-16 16-16 16 7.163 16 16zM9.594 21.575c-0.297 0.315-0.674 0.432-1.095 0.455-0.295 0.016-0.474 0.232-0.454 0.522 0.020 0.297 0.218 0.471 0.521 0.456 1.213-0.060 2.126-0.82 2.393-2.001 0.026-0.116 0.073-0.14 0.182-0.139 3.638 0.003 7.276 0.002 10.914 0.003 0.047 0 0.094 0.004 0.139 0.007-0.172 0.194-0.347 0.368-0.494 0.562-0.323 0.428-0.481 0.918-0.495 1.454-0.008 0.298 0.169 0.484 0.464 0.498 0.283 0.013 0.494-0.175 0.515-0.454 0.008-0.105 0.016-0.21 0.037-0.312 0.106-0.528 0.43-0.898 0.871-1.176 0.628-0.394 1.324-0.554 2.057-0.579 0.311-0.011 0.492-0.199 0.489-0.505-0.003-0.296-0.186-0.466-0.499-0.474-0.623-0.015-1.226-0.128-1.789-0.403-0.708-0.346-1.207-0.845-1.234-1.694-0.009-0.272-0.245-0.441-0.54-0.423-0.27 0.016-0.442 0.201-0.437 0.479 0.011 0.576 0.191 1.095 0.552 1.545 0.135 0.169 0.293 0.321 0.455 0.497-0.067 0-0.119 0-0.172 0-3.597 0-7.194 0-10.791 0-0.023 0-0.046-0.002-0.069 0-0.080 0.009-0.114-0.017-0.137-0.104-0.055-0.206-0.12-0.412-0.205-0.608-0.166-0.384-0.44-0.688-0.778-0.952 0.552-0.426 0.869-0.986 0.999-1.652 0.488 0 0.964 0 1.447 0-0.007 0.030-0.010 0.048-0.015 0.065-0.194 0.655-0.726 1.056-1.436 1.083-0.304 0.012-0.479 0.203-0.473 0.518 0.006 0.285 0.188 0.474 0.483 0.456 0.249-0.015 0.504-0.041 0.74-0.117 0.919-0.294 1.458-0.948 1.686-1.871 0.028-0.115 0.069-0.153 0.187-0.15 0.297 0.009 0.594 0.003 0.891 0.003 0.112 0 0.225 0 0.341 0-0.091 0.473-0.454 0.903-0.908 1.055-0.183 0.061-0.382 0.084-0.576 0.104-0.261 0.027-0.442 0.221-0.44 0.5 0.002 0.278 0.173 0.47 0.439 0.477 0.132 0.004 0.266-0.004 0.396-0.025 1.072-0.18 1.835-0.902 2.079-1.972 0.026-0.115 0.070-0.142 0.181-0.141 3.638 0.003 7.276 0.002 10.914 0.003 0.047 0 0.094 0.005 0.169 0.008-0.051 0.048-0.079 0.076-0.108 0.102-0.568 0.51-0.881 1.142-0.912 1.909-0.009 0.228 0.097 0.4 0.298 0.472 0.347 0.123 0.67-0.092 0.685-0.457 0.015-0.383 0.143-0.723 0.393-1.014 0.377-0.44 0.876-0.678 1.417-0.84 0.387-0.116 0.784-0.169 1.188-0.18 0.209-0.006 0.356-0.111 0.424-0.309 0.106-0.308-0.055-0.675-0.476-0.674-0.71 0.001-1.388-0.156-2.006-0.515-0.595-0.346-0.988-0.83-1.006-1.556-0.006-0.227-0.168-0.395-0.387-0.437-0.345-0.065-0.602 0.144-0.592 0.495 0.022 0.758 0.336 1.382 0.89 1.891 0.037 0.034 0.073 0.070 0.125 0.119-3.737 0-7.442 0-11.15 0-0.014-0.059-0.027-0.111-0.039-0.164-0.267-1.152-1.245-1.944-2.425-1.967-0.177-0.003-0.324 0.051-0.422 0.205-0.21 0.332-0.001 0.747 0.39 0.78 0.118 0.010 0.238 0.013 0.353 0.037 0.553 0.113 1.035 0.601 1.102 1.116-0.434 0-0.868 0.002-1.301-0.004-0.029-0-0.072-0.046-0.083-0.079-0.050-0.151-0.081-0.31-0.138-0.458-0.373-0.964-1.301-1.598-2.327-1.598-0.253 0-0.439 0.154-0.471 0.388-0.048 0.351 0.15 0.585 0.504 0.599 0.657 0.026 1.107 0.349 1.36 0.952 0.025 0.060 0.039 0.125 0.062 0.199-0.469 0-0.917 0.002-1.364-0.004-0.033-0-0.085-0.059-0.093-0.098-0.107-0.484-0.321-0.911-0.666-1.269-0.097-0.1-0.204-0.19-0.311-0.288 0.509-0.402 0.821-0.919 0.953-1.545 0.020-0.094 0.074-0.096 0.148-0.096 0.594 0.001 1.188 0.001 1.782 0.001 3.048 0 6.097-0 9.145 0 0.050 0 0.1 0.005 0.132 0.007-0.080 0.091-0.152 0.18-0.231 0.263-0.466 0.491-0.719 1.071-0.739 1.75-0.009 0.295 0.167 0.484 0.449 0.494 0.307 0.011 0.516-0.16 0.527-0.448 0.025-0.626 0.324-1.093 0.83-1.435 0.628-0.424 1.335-0.593 2.083-0.634 0.129-0.007 0.274-0.046 0.379-0.118 0.169-0.115 0.21-0.369 0.132-0.574-0.074-0.195-0.225-0.288-0.479-0.291-0.621-0.006-1.217-0.127-1.776-0.399-0.708-0.344-1.207-0.844-1.233-1.694-0.008-0.276-0.245-0.439-0.554-0.42-0.257 0.016-0.428 0.206-0.423 0.478 0.012 0.576 0.192 1.094 0.552 1.545 0.133 0.166 0.286 0.315 0.447 0.49-0.067 0-0.119 0-0.171 0-3.592 0-7.185-0.001-10.777 0.003-0.142 0-0.199-0.032-0.232-0.181-0.252-1.152-1.286-1.967-2.457-1.952-0.231 0.003-0.398 0.134-0.445 0.35-0.074 0.346 0.124 0.613 0.478 0.628 0.42 0.017 0.787 0.15 1.076 0.465 0.177 0.193 0.299 0.416 0.365 0.688-0.43 0-0.841-0.003-1.252 0.002-0.103 0.001-0.135-0.033-0.158-0.134-0.267-1.198-1.287-2.018-2.477-1.999-0.211 0.004-0.358 0.108-0.424 0.304-0.116 0.345 0.091 0.657 0.456 0.673 0.338 0.015 0.649 0.098 0.917 0.311s0.441 0.489 0.526 0.824c-0.026 0.008-0.038 0.016-0.051 0.016-0.434 0.001-0.868-0-1.303 0.003-0.095 0.001-0.092-0.063-0.106-0.126-0.264-1.195-1.286-2.023-2.475-2.006-0.265 0.004-0.447 0.182-0.456 0.446-0.011 0.324 0.165 0.519 0.489 0.533 0.363 0.015 0.699 0.108 0.966 0.361 0.523 0.494 0.644 1.108 0.471 1.784-0.142 0.553-0.484 0.937-1.046 1.090-0.161 0.044-0.334 0.043-0.501 0.069-0.25 0.039-0.401 0.262-0.379 0.549 0.019 0.242 0.198 0.411 0.442 0.417 0.334 0.009 0.656-0.049 0.963-0.177 0.81-0.338 1.294-0.955 1.5-1.798 0.029-0.118 0.068-0.162 0.196-0.158 0.379 0.010 0.759 0.003 1.138 0.004 0.048 0 0.095 0.005 0.145 0.007-0.077 0.394-0.372 0.779-0.726 0.967-0.231 0.123-0.479 0.166-0.738 0.179-0.289 0.014-0.468 0.227-0.456 0.524 0.011 0.278 0.194 0.456 0.479 0.45 0.991-0.021 1.729-0.468 2.194-1.342 0.129-0.242 0.202-0.514 0.303-0.777 0.44 0 0.895 0 1.399 0-0.118 0.213-0.202 0.412-0.327 0.581-0.283 0.382-0.684 0.548-1.152 0.561-0.207 0.006-0.362 0.089-0.446 0.281-0.155 0.358 0.070 0.703 0.468 0.715 0.476 0.015 0.871 0.192 1.156 0.579 0.287 0.39 0.375 0.832 0.32 1.31-0.094 0.817-0.686 1.37-1.508 1.402-0.291 0.011-0.478 0.208-0.482 0.504-0.003 0.279 0.177 0.474 0.454 0.502 0.163 0.017 0.33 0.027 0.486 0.074 0.535 0.163 0.842 0.545 1.001 1.086-0.433 0-0.848-0.003-1.263 0.002-0.097 0.001-0.127-0.028-0.15-0.124-0.259-1.069-0.922-1.737-2.001-1.974-0.159-0.035-0.327-0.040-0.49-0.040-0.248-0-0.421 0.179-0.438 0.435-0.019 0.279 0.136 0.494 0.384 0.532 0.072 0.011 0.145 0.013 0.218 0.018 0.401 0.033 0.74 0.192 1.002 0.5 0.158 0.185 0.27 0.396 0.325 0.651-0.468 0-0.92 0.002-1.372-0.005-0.030-0-0.076-0.065-0.086-0.107-0.26-1.063-0.909-1.736-1.984-1.977-0.163-0.037-0.335-0.045-0.503-0.048-0.254-0.003-0.439 0.184-0.449 0.437-0.013 0.297 0.149 0.497 0.413 0.538 0.237 0.037 0.488 0.056 0.703 0.149 0.998 0.434 1.155 1.919 0.443 2.684-0.303 0.325-0.686 0.446-1.118 0.469-0.291 0.015-0.455 0.224-0.441 0.533 0.012 0.268 0.21 0.45 0.491 0.443 0.346-0.008 0.682-0.070 0.997-0.216 0.761-0.351 1.22-0.952 1.416-1.758 0.032-0.132 0.082-0.171 0.215-0.168 0.375 0.009 0.749 0.003 1.124 0.004 0.047 0 0.094 0.006 0.15 0.010-0.076 0.275-0.197 0.501-0.379 0.694-0.3 0.32-0.683 0.435-1.109 0.458-0.286 0.015-0.455 0.224-0.442 0.519 0.012 0.276 0.198 0.46 0.478 0.456 0.441-0.006 0.859-0.108 1.242-0.334 0.638-0.376 1.022-0.938 1.189-1.652 0.029-0.122 0.074-0.16 0.198-0.155 0.237 0.011 0.475 0.003 0.713 0.003 0.168 0 0.336 0 0.52 0-0.077 0.279-0.198 0.509-0.383 0.705z"></path>
</svg>
