<!-- Generated by IcoMoon.io -->
<svg version="1.1" xmlns="http://www.w3.org/2000/svg" width="32" height="32" viewBox="0 0 32 32">
<title>arrows</title>
<path d="M7.953 21.587c-0.215 0-0.411 0-0.608 0-0.278 0-0.556 0.009-0.833-0.004-0.145-0.006-0.198 0.038-0.231 0.181-0.195 0.834-0.644 1.491-1.389 1.93-0.447 0.263-0.935 0.383-1.451 0.39-0.327 0.004-0.544-0.21-0.558-0.533-0.015-0.345 0.182-0.588 0.516-0.606 0.497-0.027 0.945-0.161 1.295-0.535 0.212-0.226 0.354-0.49 0.442-0.811-0.066-0.004-0.121-0.011-0.176-0.011-0.438-0.001-0.876 0.006-1.314-0.004-0.155-0.004-0.214 0.042-0.252 0.196-0.229 0.941-0.765 1.643-1.655 2.053-0.368 0.17-0.761 0.243-1.165 0.252-0.327 0.008-0.559-0.205-0.573-0.518-0.017-0.36 0.175-0.604 0.515-0.622 0.504-0.027 0.952-0.167 1.306-0.548 0.832-0.893 0.65-2.629-0.517-3.136-0.252-0.109-0.545-0.131-0.821-0.174-0.308-0.048-0.497-0.282-0.483-0.628 0.013-0.295 0.228-0.515 0.525-0.511 0.196 0.003 0.397 0.013 0.588 0.055 1.256 0.282 2.015 1.067 2.318 2.309 0.012 0.049 0.066 0.125 0.101 0.125 0.528 0.008 1.056 0.005 1.603 0.005-0.065-0.298-0.195-0.544-0.379-0.76-0.306-0.359-0.702-0.546-1.171-0.584-0.085-0.007-0.171-0.009-0.255-0.022-0.29-0.044-0.47-0.297-0.449-0.622 0.020-0.299 0.221-0.508 0.511-0.508 0.191 0 0.387 0.006 0.573 0.047 1.261 0.277 2.036 1.057 2.338 2.307 0.027 0.112 0.062 0.147 0.175 0.145 0.485-0.006 0.969-0.003 1.476-0.003-0.186-0.632-0.543-1.078-1.169-1.269-0.181-0.055-0.377-0.067-0.567-0.086-0.325-0.033-0.535-0.26-0.531-0.587 0.004-0.347 0.223-0.576 0.563-0.589 0.961-0.037 1.652-0.683 1.762-1.638 0.065-0.558-0.038-1.075-0.374-1.531-0.333-0.453-0.795-0.66-1.351-0.677-0.466-0.014-0.729-0.418-0.547-0.835 0.098-0.226 0.28-0.322 0.522-0.329 0.547-0.015 1.015-0.209 1.346-0.655 0.146-0.197 0.244-0.429 0.382-0.678-0.589 0-1.121 0-1.634 0-0.118 0.308-0.204 0.626-0.354 0.908-0.543 1.021-1.406 1.543-2.563 1.567-0.333 0.007-0.546-0.202-0.559-0.526-0.014-0.347 0.194-0.596 0.532-0.612 0.302-0.015 0.592-0.066 0.862-0.21 0.413-0.219 0.758-0.67 0.848-1.13-0.058-0.003-0.114-0.009-0.169-0.009-0.443-0.001-0.886 0.007-1.33-0.004-0.149-0.004-0.195 0.047-0.229 0.185-0.241 0.985-0.806 1.705-1.753 2.101-0.358 0.149-0.735 0.217-1.125 0.207-0.285-0.007-0.494-0.204-0.517-0.487-0.026-0.336 0.15-0.596 0.443-0.642 0.195-0.030 0.397-0.029 0.585-0.081 0.657-0.179 1.057-0.628 1.222-1.273 0.203-0.79 0.061-1.507-0.55-2.084-0.312-0.295-0.705-0.404-1.129-0.422-0.379-0.015-0.584-0.244-0.572-0.622 0.010-0.308 0.223-0.516 0.533-0.521 1.389-0.020 2.583 0.947 2.891 2.343 0.016 0.073 0.013 0.148 0.124 0.147 0.507-0.004 1.014-0.003 1.522-0.004 0.015 0 0.030-0.009 0.060-0.019-0.099-0.391-0.301-0.713-0.614-0.963s-0.677-0.347-1.071-0.364c-0.426-0.019-0.668-0.383-0.532-0.786 0.077-0.228 0.248-0.351 0.495-0.355 1.39-0.023 2.583 0.935 2.894 2.335 0.026 0.118 0.064 0.158 0.185 0.156 0.479-0.006 0.959-0.003 1.462-0.003-0.077-0.319-0.219-0.579-0.426-0.804-0.338-0.367-0.766-0.523-1.257-0.543-0.413-0.017-0.645-0.329-0.558-0.733 0.054-0.252 0.249-0.405 0.519-0.409 1.369-0.018 2.577 0.936 2.871 2.281 0.038 0.175 0.104 0.212 0.27 0.212 4.197-0.005 8.395-0.004 12.592-0.004 0.061 0 0.122 0 0.2 0-0.188-0.205-0.367-0.38-0.522-0.573-0.421-0.526-0.632-1.132-0.645-1.805-0.006-0.318 0.194-0.54 0.494-0.558 0.361-0.022 0.637 0.168 0.647 0.491 0.030 0.994 0.613 1.578 1.44 1.98 0.653 0.317 1.35 0.459 2.075 0.466 0.298 0.003 0.473 0.112 0.56 0.34 0.091 0.239 0.044 0.536-0.154 0.671-0.123 0.084-0.292 0.129-0.443 0.138-0.874 0.048-1.7 0.245-2.434 0.741-0.592 0.399-0.941 0.946-0.97 1.677-0.013 0.337-0.257 0.537-0.615 0.524-0.33-0.011-0.534-0.233-0.525-0.577 0.023-0.793 0.318-1.471 0.863-2.044 0.092-0.097 0.177-0.201 0.27-0.307-0.038-0.002-0.096-0.008-0.155-0.008-3.562-0.001-7.124-0.001-10.685-0.001-0.694 0-1.388 0.001-2.083-0.001-0.086 0-0.149 0.002-0.172 0.112-0.154 0.731-0.519 1.335-1.114 1.805 0.125 0.115 0.25 0.22 0.363 0.337 0.403 0.418 0.653 0.917 0.778 1.483 0.010 0.045 0.071 0.114 0.109 0.114 0.523 0.007 1.046 0.005 1.594 0.005-0.027-0.087-0.043-0.163-0.072-0.233-0.295-0.705-0.821-1.083-1.589-1.113-0.414-0.016-0.645-0.289-0.589-0.7 0.037-0.274 0.255-0.453 0.55-0.453 1.199-0.001 2.283 0.741 2.719 1.867 0.067 0.173 0.103 0.358 0.162 0.535 0.013 0.038 0.063 0.092 0.097 0.092 0.506 0.006 1.013 0.004 1.521 0.004-0.079-0.602-0.642-1.172-1.288-1.303-0.135-0.028-0.275-0.031-0.413-0.043-0.458-0.038-0.701-0.524-0.456-0.911 0.114-0.181 0.286-0.244 0.493-0.24 1.379 0.027 2.522 0.953 2.834 2.298 0.014 0.062 0.029 0.123 0.046 0.192 4.333 0 8.662 0 13.028 0-0.060-0.058-0.102-0.099-0.146-0.139-0.647-0.595-1.014-1.323-1.040-2.21-0.012-0.41 0.289-0.654 0.692-0.578 0.255 0.049 0.445 0.244 0.452 0.51 0.022 0.849 0.48 1.413 1.175 1.818 0.723 0.42 1.515 0.604 2.344 0.602 0.492-0.001 0.681 0.428 0.557 0.788-0.080 0.232-0.252 0.354-0.495 0.361-0.471 0.013-0.936 0.075-1.388 0.211-0.633 0.19-1.215 0.468-1.655 0.982-0.292 0.34-0.441 0.738-0.459 1.185-0.017 0.426-0.395 0.678-0.801 0.534-0.235-0.084-0.359-0.285-0.349-0.551 0.036-0.897 0.403-1.635 1.066-2.231 0.034-0.031 0.067-0.063 0.126-0.119-0.087-0.004-0.142-0.010-0.197-0.010-4.251-0.001-8.501 0-12.752-0.003-0.129 0-0.181 0.031-0.212 0.165-0.285 1.25-1.177 2.094-2.429 2.304-0.151 0.026-0.308 0.034-0.462 0.030-0.311-0.009-0.511-0.233-0.513-0.558-0.003-0.326 0.208-0.554 0.514-0.585 0.226-0.023 0.459-0.050 0.673-0.121 0.531-0.177 0.955-0.68 1.061-1.232-0.135 0-0.267 0-0.398 0-0.347 0-0.694 0.007-1.041-0.003-0.138-0.004-0.186 0.041-0.219 0.175-0.266 1.077-0.895 1.842-1.97 2.186-0.275 0.088-0.574 0.119-0.865 0.137-0.345 0.021-0.557-0.199-0.564-0.532-0.007-0.367 0.197-0.591 0.553-0.605 0.83-0.031 1.451-0.5 1.678-1.266 0.006-0.020 0.009-0.041 0.017-0.076-0.564 0-1.12 0-1.691 0-0.152 0.778-0.522 1.433-1.167 1.93 0.395 0.308 0.715 0.663 0.909 1.112 0.099 0.229 0.174 0.469 0.239 0.71 0.027 0.102 0.067 0.133 0.161 0.122 0.026-0.003 0.053-0.001 0.080-0.001 4.203 0 8.405 0 12.608 0 0.061 0 0.123 0 0.201 0-0.19-0.206-0.374-0.384-0.532-0.581-0.421-0.526-0.631-1.132-0.645-1.805-0.006-0.325 0.195-0.541 0.51-0.56 0.345-0.021 0.621 0.176 0.631 0.494 0.031 0.993 0.614 1.575 1.441 1.979 0.658 0.322 1.363 0.454 2.090 0.471 0.365 0.009 0.579 0.207 0.582 0.554 0.003 0.358-0.209 0.578-0.571 0.59-0.857 0.030-1.67 0.216-2.404 0.677-0.516 0.324-0.894 0.757-1.018 1.374-0.024 0.12-0.034 0.243-0.043 0.365-0.023 0.325-0.271 0.545-0.601 0.53-0.345-0.015-0.551-0.234-0.542-0.581 0.017-0.626 0.201-1.199 0.579-1.699 0.172-0.228 0.377-0.431 0.577-0.657-0.053-0.003-0.108-0.007-0.163-0.007-4.251-0.001-8.501 0-12.752-0.003-0.127 0-0.182 0.027-0.213 0.163-0.312 1.38-1.379 2.268-2.795 2.338-0.354 0.018-0.585-0.185-0.609-0.532-0.022-0.339 0.186-0.59 0.531-0.61 0.492-0.027 0.933-0.164 1.28-0.532 0.216-0.229 0.358-0.498 0.448-0.824l0.003-0.004z"></path>
</svg>
