<!-- Generated by IcoMoon.io -->
<svg version="1.1" xmlns="http://www.w3.org/2000/svg" width="32" height="32" viewBox="0 0 32 32">
<title>bitbucket</title>
<path d="M15.999 0v0c-7.811 0-14.188 2.1-14.188 4.708 0 0.688 1.704 10.532 2.38 14.439 0.303 1.751 4.827 4.32 11.805 4.32l0.008-0.023v0.023c6.977 0 11.503-2.569 11.805-4.32 0.675-3.907 2.379-13.751 2.379-14.439 0.001-2.608-6.377-4.708-14.189-4.708v0zM15.999 20.303c-2.489 0-4.511-2.020-4.511-4.509s2.021-4.511 4.511-4.511c2.492 0 4.511 2.020 4.511 4.511s-2.020 4.509-4.511 4.509zM15.996 6.163c-5.019-0.007-9.084-0.879-9.084-1.947s4.071-1.927 9.089-1.919c5.020 0.007 9.084 0.879 9.084 1.947s-4.071 1.927-9.089 1.919zM26.196 22.305c-0.216 0-0.389 0.152-0.389 0.152s-3.493 2.767-9.808 2.767-9.808-2.767-9.808-2.767-0.173-0.152-0.389-0.152c-0.257 0-0.503 0.173-0.503 0.555 0 0.041 0.005 0.081 0.012 0.12 0.541 2.903 0.939 4.961 1.009 5.276 0.472 2.133 4.649 3.744 9.677 3.744v0h0.001c5.029 0 9.207-1.611 9.679-3.745 0.072-0.313 0.467-2.373 1.009-5.276 0.008-0.039 0.011-0.079 0.011-0.12-0.001-0.381-0.244-0.553-0.501-0.553zM18.585 15.827c0 1.357-1.099 2.457-2.456 2.457s-2.457-1.1-2.457-2.457c0-1.356 1.1-2.456 2.457-2.456s2.456 1.1 2.456 2.456z"></path>
</svg>
