<!-- Generated by IcoMoon.io -->
<svg version="1.1" xmlns="http://www.w3.org/2000/svg" width="32" height="32" viewBox="0 0 32 32">
<title>bootstrap</title>
<path d="M32 29.333q0 0.391-0.196 0.871t-0.533 0.871-0.836 0.658-1.102 0.267h-26.667q-0.604 0-1.102-0.267t-0.836-0.658-0.533-0.871-0.196-0.871v-26.667q0-1.209 0.729-1.938t1.938-0.729h26.667q1.209 0 1.938 0.729t0.729 1.938v26.667zM16.533 26.702q2.027 0 3.556-0.391t2.88-1.422q1.244-0.924 1.689-1.956t0.444-2.667q0-1.209-0.427-2.080t-1.244-1.653q-0.782-0.818-1.689-1.191t-2.542-0.373q1.209-0.391 1.902-0.782t1.404-0.996 1.102-1.493 0.391-2.098q0-0.782-0.516-1.724t-1.511-1.547q-1.28-0.818-2.56-1.191t-2.88-0.373h-7.467v21.938h7.467zM15.467 6.898q2.418 0 3.876 0.8t1.458 2.364q0 0.64-0.107 1.067t-0.302 0.782-0.498 0.676-0.693 0.747q-0.818 0.391-1.742 0.747t-2.489 0.356h-3.236v-7.538h3.733zM15.467 16.533q3.236 0 4.853 0.853t1.618 2.88q0 0.818-0.48 1.44t-1.191 1.191q-0.782 0.64-1.724 0.871t-2.578 0.231h-4.231v-7.467h3.733z"></path>
</svg>
