<!-- Generated by IcoMoon.io -->
<svg version="1.1" xmlns="http://www.w3.org/2000/svg" width="32" height="32" viewBox="0 0 32 32">
<title>bower</title>
<path d="M12.371 7.488c-0.921 0-1.669 0.748-1.669 1.668s0.747 1.671 1.669 1.671 1.668-0.748 1.668-1.669c0-0.923-0.747-1.669-1.668-1.669zM12.371 9.023c-0.537 0-0.972-0.272-0.972-0.605s0.435-0.604 0.972-0.604c0.536 0 0.972 0.272 0.972 0.604 0 0.333-0.436 0.605-0.972 0.605zM31.391 15.675c-1.647-1.583-9.877-2.571-12.473-2.856 0.124-0.297 0.232-0.605 0.321-0.921 0.355-0.155 0.736-0.3 1.132-0.419 0.048 0.143 0.276 0.687 0.404 0.945 5.223 0.144 5.491-3.881 5.703-4.984 0.207-1.079 0.199-2.12 1.989-4.025-2.668-0.777-6.507 1.205-7.792 4.157-0.484-0.18-0.969-0.315-1.447-0.396-0.344-1.385-2.132-5.243-6.82-5.243-3.036 0-6.099 1.255-8.403 3.441-1.24 1.179-2.215 2.576-2.896 4.159-0.736 1.708-1.109 3.588-1.109 5.589 0 6.971 4.757 13.077 7.445 13.077 1.173 0 2.184-0.879 2.421-1.667 0.199 0.541 0.808 2.221 1.008 2.647 0.297 0.633 1.665 1.18 2.264 0.523 0.771 0.428 2.184 0.684 2.953-0.456 1.484 0.313 2.796-0.571 2.823-1.628 0.728-0.037 1.085-1.061 0.927-1.875-0.116-0.599-1.368-2.751-1.857-3.492 0.967 0.788 3.416 1.008 3.712 0 1.557 1.223 3.988 0.583 4.18-0.415 1.893 0.493 4.065-0.588 3.709-1.896 3.044-0.211 2.653-3.447 1.799-4.268h0.007zM23.467 10.308c-0.801-0.315-1.819-0.513-2.529-0.513-1.009 0-1.627 0.572-2.577 0.572-0.199 0-0.676 0.001-1.057-0.135 0.252 0.264 0.564 0.407 1.169 0.407 0.361 0 1.080-0.185 1.66-0.36 0.008 0.124 0.023 0.244 0.039 0.364-1.087 0.26-2.229 0.952-2.56 1.132-0.735-1.623-0.103-3.157 0.48-3.864 2.616 0.005 4.729 1.803 5.376 2.397v0zM24.597 10.188l-0.4-0.373c-0.412-0.387-0.839-0.733-1.28-1.043 0.657-1.3 1.479-2.72 2.519-3.597-1.143 0.461-2.276 1.839-2.943 3.312-0.34-0.216-0.688-0.409-1.035-0.577 0.932-1.991 3.099-3.652 5.484-3.781-1.599 1.451-0.999 4.344-2.345 6.060v0zM21.313 11.544c-0.176-0.383-0.355-1.017-0.333-1.389 0.296-0.007 0.867 0.105 0.957 0.125-0.036 0.175-0.055 0.559-0.055 0.609 0.056-0.097 0.215-0.432 0.277-0.564 0.571 0.108 1.32 0.291 1.76 0.496-0.516 0.332-1.392 0.696-2.607 0.723v0zM17.751 7.057c-2.087 2.115-1.264 4.791-0.504 5.999-1.080 1.799-3.205 3.027-5.672 3.587 2.771 0 4.4-0.713 5.349-1.411 0.604-0.447 0.932-0.887 1.1-1.131 4.107 0.265 10.611 1.589 11.247 2.017 0.253 0.172 0.516 0.552 0.556 0.916-3.085-0.432-8.651-0.887-10.108-0.963 1.035 0.147 8.579 1.576 9.887 1.909-0.397 0.648-1.305 1.109-2.671 0.789 0.739 1.005-0.695 2.212-2.693 1.548 0.439 0.988-1.337 1.876-3.359 0.847 0.027 0.988-2.507 1.104-3.508 0.011 0.020 0.129 0.139 0.379 0.191 0.488-0.323 2.885-2.687 4.673-5.105 4.673-5.925 0-11.087-4.812-11.087-11.215 0-6.768 5.001-11.819 11.037-11.819 3.455 0 5.017 2.723 5.34 3.753v0z"></path>
</svg>
