<!-- Generated by IcoMoon.io -->
<svg version="1.1" xmlns="http://www.w3.org/2000/svg" width="32" height="32" viewBox="0 0 32 32">
<title>codeigniter</title>
<path d="M31.636 16.248q0 3.247-1.233 6.074t-3.353 4.946-4.961 3.338-6.029 1.218q-3.217 0-6.059-1.218t-4.961-3.338-3.338-4.946-1.218-6.074q0-3.217 1.218-6.059t3.338-4.961 4.961-3.338 6.059-1.218q3.187 0 6.029 1.218t4.961 3.338 3.353 4.961 1.233 6.059zM12.632 27.765q-0.631-0.391-1.143-0.932-0.421-0.451-0.767-1.128t-0.346-1.549q0-1.082 0.316-1.834t0.707-1.233q0.451-0.541 1.022-0.872-0.241 0.391-0.241 0.782 0 0.331 0.195 0.707t0.887 0.646q0.391 0.21 0.857 0.105t0.812-0.421 0.496-0.767-0.090-0.932q-0.301-0.541-0.631-1.037t-0.601-0.932-0.451-0.782-0.18-0.616q-0.060-0.331 0.105-0.737t0.376-0.737q0.241-0.391 0.571-0.782-0.060 0.21-0.060 0.421 0 0.18 0.045 0.391t0.226 0.391q0.481 0.872 1.098 1.443t1.248 0.992 1.248 0.797 1.173 0.827 0.977 1.052 0.662 1.534q0.361 1.383-0.045 2.36t-1.007 1.609q-0.722 0.752-1.744 1.233 1.624-0.21 3.007-1.082 0.571-0.361 1.173-0.917t1.098-1.338 0.872-1.819 0.526-2.391q0.090-0.812-0.075-1.534t-0.481-1.353-0.752-1.188-0.917-1.007q-1.113-1.052-2.586-1.864 0.12 0.241 0.12 0.481 0 0.21-0.090 0.466t-0.421 0.496q-0.12 0.090-0.361 0.195t-0.526 0.135-0.586-0.075-0.511-0.376q-0.361-0.361-0.511-0.722t-0.135-0.902 0.15-1.308 0.376-1.939q0.241-1.022-0.075-1.924t-0.797-1.594q-0.541-0.782-1.323-1.473 0.090 0.421 0.15 0.782 0.060 0.331 0.060 0.631t-0.090 0.451q-0.361 0.932-1.082 1.804t-1.609 1.759-1.834 1.849-1.774 2.060-1.413 2.406-0.767 2.902q-0.18 1.353-0.045 2.451t0.496 1.939 0.872 1.458 1.052 1.067q1.293 1.052 3.097 1.473z"></path>
</svg>
