<!-- Generated by IcoMoon.io -->
<svg version="1.1" xmlns="http://www.w3.org/2000/svg" width="32" height="32" viewBox="0 0 32 32">
<title>coffeescript</title>
<path d="M16.833 3.612c-0.568 0.168-1.837 0.735-2.839 1.303-2.305 1.304-3.909 1.604-4.809 0.936-0.569-0.467-0.601-0.567-0.167-0.868 0.267-0.2 1.068-0.303 1.737-0.268 0.701 0.032 1.269-0.067 1.269-0.235 0.032-0.601-3.208-0.601-3.808 0-1.239 1.271-0.036 2.54 2.604 2.773 1.536 0.135 2.171-0.032 4.476-1.068 3.007-1.369 5.279-1.804 6.381-1.237 0.835 0.468 0.936 1.203 0.167 1.504-0.969 0.367-2.705 0.2-3.141-0.267-0.433-0.567-1.335-0.333-1.335 0.333 0 1.369 5.077 1.569 6.381 0.233 2.103-2.071-2.541-4.175-6.917-3.14zM1.831 5.819c-2.74 1.469-0.1 3.473 5.879 4.476 7.583 1.269 19.508 0.333 22.715-1.771 1.037-0.667 1.104-2.037 0.169-2.539-0.569-0.301-0.668-0.268-0.668 0.301 0 1.837-5.312 3.039-13.563 3.039-9.085 0-14.297-1.303-13.629-3.44 0.2-0.668 0.2-0.668-0.903-0.067zM1.845 10.895c0.133 0.501 0.435 1.603 0.667 2.407 0.436 1.436 0.401 1.469-0.733 2.639-2.572 2.673-2.339 6.347 0.601 8.52 1.001 0.735 3.741 0.901 4.377 0.267 0.267-0.267 0.165-0.368-0.368-0.368-0.868 0-2.907-1.737-3.608-3.039-0.667-1.336-0.601-3.408 0.167-4.343l0.635-0.801 0.333 0.835c0.2 0.468 1.201 2.139 2.273 3.675 1.068 1.569 2.171 3.508 2.472 4.343 0.501 1.304 0.835 1.637 2.505 2.505 1.637 0.801 2.439 1.001 4.977 1.103 4.944 0.235 8.519-1.235 9.055-3.64 0.133-0.569 1.168-2.407 2.304-4.076 2.137-3.172 3.107-5.111 4.009-8.219 0.801-2.739 0.769-2.772-1.236-1.869-3.005 1.369-7.817 1.937-14.899 1.739-7.251-0.201-9.924-0.704-13.499-2.507-0.133-0.067-0.167 0.3-0.032 0.836l-0.001-0.005z"></path>
</svg>
