<!-- Generated by IcoMoon.io -->
<svg version="1.1" xmlns="http://www.w3.org/2000/svg" width="32" height="32" viewBox="0 0 32 32">
<title>grunt</title>
<path d="M15.996 11.731v0c0 0 0.001 0 0.004 0s0.003 0 0.004 0v0c0.799-0.009 1.703-1.112 1.703-1.112-0.623 0.375-1.177 0.507-1.707 0.519-0.529-0.012-1.084-0.143-1.707-0.519 0 0 0.904 1.103 1.703 1.112zM13.992 26.157h-0.4c-0.417 0-0.905 0-1.196 0h-0.243c-0.343 0-0.512 0.097-0.593 0.181-0.119 0.119-0.136 0.284-0.055 0.491 0.217 0.556 0.711 1.009 0.857 1.136 0.191 0.163 0.465 0.263 0.735 0.263 0.277 0 0.521-0.1 0.689-0.28 0.471-0.501 0.748-1.043 0.815-1.208 0.039-0.095 0.081-0.275-0.055-0.417-0.108-0.109-0.296-0.165-0.555-0.165zM7.827 11.833c-0.071 0.627 0.328 1.195 0.328 1.195 0.041-0.465 0.137-0.796 0.252-1.032 0.027 0.643 0.197 1.469 0.797 2.135 0.429 0.473 2.224 1.459 3.429 0.379 0.061 0.153 0.129 0.335 0.185 0.528 0.181 0.64-0.167 1.579-0.167 1.579s0.941-1.064 0.868-2.031c0.676-0.028 1.34-0.527 1.32-1.22 0 0-1.177 0.651-2.219-0.548-0.608-0.699-2.555-2.625-5.197-1.985 0.272 0.059 0.556 0.148 0.847 0.257-0.003 0-0.004 0-0.007 0.003-0.257 0.112-0.4 0.429-0.437 0.739v0.003zM9.601 11.719c1.221 0.687 2.34 1.605 2.807 2.316v0c0 0 0 0 0 0.003-0.359 0.205-1.355 0.649-2.373-0.105-0.651-0.481-0.621-1.645-0.435-2.211v-0.003zM19.845 26.157h-0.243c-0.291 0-0.779 0-1.195 0h-0.403c-0.26 0-0.445 0.056-0.553 0.165-0.136 0.144-0.093 0.324-0.056 0.417 0.067 0.168 0.345 0.708 0.813 1.211 0.169 0.177 0.415 0.277 0.691 0.277 0.269 0 0.544-0.097 0.735-0.263 0.145-0.127 0.64-0.577 0.857-1.136 0.080-0.207 0.060-0.372-0.056-0.491-0.080-0.084-0.248-0.181-0.591-0.181zM18.479 14.584c-0.072 0.968 0.868 2.031 0.868 2.031s-0.348-0.937-0.167-1.579c0.057-0.195 0.123-0.375 0.185-0.528 1.204 1.080 2.999 0.095 3.428-0.379 0.6-0.665 0.771-1.493 0.797-2.137 0.115 0.237 0.211 0.568 0.252 1.035 0 0 0.397-0.569 0.328-1.197-0.036-0.309-0.179-0.627-0.435-0.739-0.003-0.003-0.004-0.003-0.007-0.003 0.291-0.109 0.575-0.199 0.847-0.257-2.641-0.64-4.588 1.287-5.197 1.984-1.041 1.199-2.219 0.548-2.219 0.548-0.020 0.696 0.645 1.193 1.319 1.221v0zM19.589 14.035v0c0.467-0.709 1.587-1.631 2.807-2.313 0.185 0.568 0.215 1.729-0.435 2.211-1.019 0.755-2.015 0.311-2.373 0.105l0.001-0.003zM25.828 19.831c-0.148 1.117-0.813 2.116-1.536 2.735-0.192-1.419-0.231-3.471-0.231-3.899 0-0.92 0.593-1.533 0.761-1.629 0.159-0.092 0.336-0.188 0.52-0.288 1.124-0.601 2.527-1.352 2.527-2.735 0-1.009-0.583-1.447-0.965-1.737-0.049-0.036-0.093-0.071-0.136-0.104-0.129-0.105-0.232-0.188-0.271-0.271-0.272-0.613-0.221-2.14-0.105-2.353 0.035-0.039 1.047-1.307 0.736-2.447-0.127-0.467-0.431-0.833-0.881-1.063-0.332-0.171-0.741-0.265-1.22-0.283-0.008-0.124-0.032-0.247-0.059-0.367-0.033-0.163-0.072-0.331-0.056-0.501 0.024-0.293 0.047-0.565 0.135-0.704 0.528-0.833 1.804-1.1 1.815-1.103l0.768-0.148-0.508-0.595c-0.008-0.012-1.079-1.091-2.893-1.091-0.496 0-1.003 0.081-1.505 0.245-1.516 0.488-2.68 1.907-3.085 2.455-0.196-0.064-0.397-0.12-0.6-0.168-0.26-0.989 0.56-2.407 0.56-2.407s-0.847-0.188-2.103 0.952c-0.164-0.405-0.504-1.283-0.109-2.327-1.841 0.649-2.307 1.641-2.445 2.543-0.473-0.339-0.421-1.443-0.447-1.725-0.472 0.056-1.823 1.369-1.763 3.021-0.124 0.033-0.247 0.068-0.367 0.107-0.405-0.548-1.569-1.965-3.085-2.455-0.503-0.164-1.009-0.245-1.505-0.245-1.812 0-2.884 1.081-2.893 1.093l-0.508 0.591 0.768 0.151c0.012 0.003 1.288 0.268 1.815 1.1 0.087 0.14 0.111 0.415 0.135 0.705 0.016 0.173-0.023 0.341-0.057 0.504-0.025 0.123-0.052 0.244-0.059 0.367-0.479 0.019-0.889 0.112-1.22 0.283-0.451 0.229-0.756 0.599-0.881 1.063-0.311 1.137 0.7 2.407 0.736 2.448 0.117 0.208 0.168 1.739-0.105 2.352-0.037 0.083-0.14 0.165-0.271 0.271-0.041 0.033-0.087 0.068-0.135 0.104-0.384 0.291-0.965 0.729-0.965 1.737 0 1.383 1.4 2.131 2.527 2.735 0.185 0.1 0.361 0.195 0.52 0.288 0.168 0.095 0.761 0.708 0.761 1.629 0 0.428-0.040 2.479-0.232 3.9-0.723-0.62-1.388-1.617-1.536-2.736 0 0-1.828 1.411-1.291 4.429 0.487 2.74 2.721 3.695 5.315 3.897 0.869 2.027 2.248 3.843 5.8 3.845v0c0 0 0.001 0 0.004 0s0.003 0 0.004 0v0c3.552-0.003 4.931-1.821 5.8-3.845 2.593-0.201 4.827-1.157 5.315-3.897 0.537-3.020-1.291-4.429-1.291-4.429v0.001zM23.108 2.356c0.353-0.112 0.723-0.171 1.104-0.171 0.689 0 1.247 0.185 1.544 0.311-0.192 0.085-0.4 0.197-0.607 0.333-0.151-0.027-0.345-0.048-0.575-0.048-0.657 0-1.279 0.193-1.797 0.557-0.769 0.54-1.127 1.057-1.291 1.399-0.137-0.081-0.283-0.159-0.441-0.237-0.097-0.045-0.197-0.092-0.297-0.136 0.384-0.561 1.244-1.651 2.36-2.008v0zM24.417 3.495c-0.051 0.065-0.099 0.132-0.141 0.201-0.207 0.327-0.241 0.728-0.275 1.113-0.033 0.401-0.067 0.784-0.273 1.061-0.26 0.049-0.505 0.108-0.717 0.167-0.141-0.195-0.352-0.439-0.657-0.696 0.091-0.3 0.345-1.009 0.848-1.408 0.343-0.273 0.753-0.419 1.216-0.439v0zM6.851 2.829c-0.205-0.136-0.413-0.247-0.607-0.333 0.297-0.127 0.855-0.311 1.544-0.311 0.38 0 0.751 0.056 1.104 0.171 1.113 0.359 1.975 1.447 2.359 2.009-0.1 0.045-0.197 0.089-0.297 0.137-0.156 0.079-0.304 0.153-0.441 0.235-0.164-0.341-0.521-0.859-1.291-1.399-0.519-0.365-1.141-0.557-1.796-0.557-0.228 0-0.424 0.023-0.575 0.048v0zM9.643 5.341c-0.305 0.257-0.513 0.501-0.656 0.697-0.213-0.057-0.457-0.119-0.717-0.168l-0.689-2.373c0.464 0.017 0.875 0.163 1.216 0.436l0.847 1.408zM7.632 16.247c-0.171-0.097-0.347-0.193-0.527-0.291-0.929-0.501-1.889-1.020-1.889-1.907 0-0.692 0.269-0.909 0.556-1.139l0.175-0.197c-0.060 0.477-0.124 0.889-0.176 0.991 0 0 0.757-0.94 0.984-2.771 0.088-0.721-0.068-2.143-0.319-2.692 0.009 0.304 0.001 0.612-0.021 0.897-0.025-0.051-0.052-0.097-0.081-0.133-0.2-0.251-0.739-1.095-0.584-1.663 0.059-0.216 0.195-0.375 0.417-0.489 0.233-0.121 0.552-0.18 0.943-0.18 0.765 0 1.617 0.233 2.056 0.372 1.569 0.496 3.463 1.928 4.004 2.357 0.016 0.013 0.027 0.020 0.028 0.020l0.347 0.244-0.217-0.363c-0.013-0.023-1.195-1.964-3.324-2.909 0.127-0.18 0.459-0.508 1.349-0.939 1.34-0.656 2.904-0.987 4.647-0.987 1.741 0 3.305 0.331 4.647 0.987 0.889 0.432 1.223 0.759 1.349 0.941-2.129 0.945-3.309 2.884-3.323 2.907l-0.217 0.361 0.347-0.241c0.001-0.003 0.011-0.009 0.027-0.020 0.543-0.428 2.435-1.861 4.003-2.36 0.44-0.137 1.291-0.372 2.057-0.372 0.392 0 0.709 0.060 0.943 0.183 0.221 0.112 0.359 0.272 0.419 0.489 0.153 0.568-0.385 1.411-0.585 1.66-0.031 0.039-0.056 0.085-0.083 0.137-0.021-0.289-0.029-0.593-0.020-0.901-0.251 0.548-0.407 1.971-0.319 2.692 0.224 1.831 0.983 2.771 0.983 2.771-0.049-0.097-0.111-0.479-0.169-0.932 0.047 0.041 0.092 0.079 0.139 0.115l0.031 0.025c0.285 0.231 0.555 0.448 0.555 1.139 0 0.887-0.96 1.405-1.889 1.907-0.179 0.097-0.357 0.193-0.527 0.291-0.541 0.313-1.127 1.044-1.192 2.139-0.055 0.913 0.055 3.12 0.213 4.743-0.777 0.301-1.669 0.399-2.48 0.423-0.128-0.257-0.247-0.533-0.343-0.82-0.043-0.123-1.225-3.193-1.649-3.892 0.341 2.437 1.095 4.605 1.469 5.601-0.217-0.029-0.457-0.047-0.733-0.047 0 0-2.596 0-3.648-0.003-0.001 0-0.004 0-0.005 0 0 0-0.003 0-0.004 0-1.052 0.003-3.649 0.003-3.649 0.003-0.275 0-0.515 0.017-0.732 0.047 0.375-0.996 1.129-3.164 1.471-5.601-0.427 0.701-1.608 3.769-1.651 3.892-0.099 0.287-0.216 0.563-0.343 0.82-0.809-0.025-1.701-0.123-2.479-0.423 0.159-1.623 0.268-3.827 0.213-4.743-0.065-1.095-0.649-1.825-1.191-2.139v0zM10.149 25.064c-0.032 0.032-0.061 0.061-0.089 0.092-0.451 0.487-0.537 1.157-0.255 1.992-1.412-0.023-2.885-0.625-3.633-1.859-0.76-1.249-0.547-3.38-0.235-3.692 0.681 2.152 2.951 2.767 4.651 2.84-0.171 0.264-0.325 0.476-0.439 0.627zM21.304 27.089c-0.413 1.183-1.521 4.043-5.305 4.048-3.785-0.005-4.893-2.864-5.305-4.048-0.228-0.655-0.211-1.139 0.053-1.441 0.18-0.204 0.595-0.451 1.54-0.451h0.987c0.728 0 1.643 0 2.727 0s1.999 0 2.727 0h0.987c0.944 0 1.359 0.247 1.54 0.451 0.263 0.303 0.281 0.787 0.053 1.441h-0.003zM25.828 25.291c-0.749 1.233-2.223 1.836-3.633 1.859 0.283-0.835 0.196-1.505-0.255-1.992-0.028-0.031-0.059-0.060-0.091-0.092-0.115-0.151-0.268-0.364-0.436-0.623 1.7-0.076 3.969-0.691 4.648-2.843 0.312 0.311 0.525 2.444-0.233 3.691v0z"></path>
</svg>
