<!-- Generated by IcoMoon.io -->
<svg version="1.1" xmlns="http://www.w3.org/2000/svg" width="32" height="32" viewBox="0 0 32 32">
<title>gulp</title>
<path d="M22.293 0.024c-0.032 0.025-0.919 0.944-1.964 2.045l-1.9 2-0.76 2.964-2.121 0.037c-3.945 0.084-6.276 0.4-6.707 0.913-0.081 0.095-0.069 0.125 0.076 0.252 1.033 0.887 9.183 1.145 12.949 0.417 1.336-0.259 1.679-0.584 0.949-0.892-0.551-0.241-2.571-0.572-3.476-0.572-0.247 0-0.304-0.019-0.304-0.113 0-0.057 0.139-0.639 0.304-1.285l0.299-1.179 1.773-1.873c0.975-1.031 1.779-1.924 1.793-1.975 0.063-0.285-0.691-0.893-0.912-0.74zM8.907 8.8c0 0.192 0.765 7.397 0.804 7.511 0.012 0.051 0.076-0.044 0.139-0.228 0.563-1.577 1.683-2.913 2.633-3.135 0.463-0.108 0.811 0.005 1.185 0.38 0.411 0.412 0.487 0.855 0.171 1.025-0.159 0.083-0.311-0.032-0.513-0.4-0.436-0.779-1.248-0.368-2.121 1.088-0.924 1.532-1.165 3.231-0.463 3.231 0.259 0 0.887-0.495 1.324-1.037 0.297-0.38 0.411-0.589 0.576-1.077 0.108-0.329 0.233-0.635 0.284-0.671 0.051-0.037 0.164-0.065 0.265-0.052 0.164 0.020 0.177 0.045 0.196 0.317 0.012 0.208-0.037 0.463-0.177 0.856-0.184 0.519-0.392 1.184-0.785 2.488-0.088 0.297-0.203 0.601-0.259 0.677-0.139 0.196-0.336 0.184-0.424-0.019-0.064-0.133-0.045-0.273 0.133-0.868 0.115-0.392 0.228-0.765 0.247-0.836 0.020-0.081-0.127 0.027-0.399 0.279-0.633 0.589-1.253 0.837-1.62 0.639-0.108-0.056-0.121-0.044-0.121 0.108 0 0.48 0.456 4.8 0.512 4.868 0.191 0.228 1.539 0.615 2.907 0.831 1.045 0.163 4.021 0.163 5.067 0 0.899-0.145 1.88-0.373 2.355-0.551 0.671-0.248 0.588 0.025 0.969-3.261 0.183-1.603 0.329-2.925 0.317-2.932-0.012-0.012-0.216 0.139-0.451 0.336-0.507 0.429-0.841 0.595-1.216 0.601-0.335 0-0.507-0.084-0.583-0.291-0.089-0.223 0.031-0.481 0.512-1.079 0.539-0.664 0.628-0.791 0.628-0.924 0-0.285-0.653 0.012-1.027 0.469-0.12 0.152-0.299 0.4-0.392 0.551-0.215 0.336-0.773 1.608-1.051 2.401-0.216 0.615-0.417 0.899-0.627 0.899-0.121 0-0.324-0.151-0.324-0.241 0-0.167 0.203-0.679 0.577-1.495 0.241-0.519 0.436-0.957 0.436-0.969s-0.121 0.071-0.272 0.191c-0.361 0.299-0.76 0.488-1.007 0.488-0.241 0-0.495-0.152-0.495-0.291 0-0.115 0.012-0.121-0.387 0.1-0.603 0.329-0.944 0.208-0.944-0.341v-0.253l-0.259 0.272c-0.476 0.488-1.121 0.657-1.475 0.38-0.228-0.177-0.223-0.596 0.019-1.317 0.437-1.292 0.772-1.799 1.069-1.607 0.184 0.113 0.152 0.297-0.139 0.899-0.5 1.031-0.531 1.52-0.088 1.392 0.424-0.12 0.931-0.784 1.285-1.671 0.095-0.248 0.215-0.495 0.272-0.559 0.139-0.157 0.349-0.115 0.419 0.089 0.044 0.133 0 0.308-0.248 0.917-0.203 0.495-0.309 0.849-0.309 1.037-0.005 0.273 0 0.285 0.177 0.273 0.228-0.020 0.595-0.259 0.645-0.429 0.197-0.639 1.659-4.211 1.773-4.339 0.127-0.127 0.177-0.144 0.323-0.088 0.108 0.037 0.184 0.115 0.197 0.196 0.012 0.076-0.108 0.431-0.265 0.792-0.621 1.436-1.431 3.515-1.431 3.673 0 0.1 0.032 0.176 0.063 0.176 0.152 0 0.571-0.265 1.025-0.652 0.405-0.355 0.5-0.469 0.589-0.752 0.24-0.736 0.416-0.944 0.676-0.805 0.103 0.057 0.12 0.115 0.095 0.285-0.019 0.121-0.019 0.216 0 0.216 0.020 0 0.164-0.115 0.317-0.259 0.481-0.437 0.892-0.545 1.272-0.311 0.177 0.108 0.203 0.159 0.203 0.4 0 0.329-0.253 0.78-0.785 1.405-0.196 0.229-0.355 0.444-0.355 0.481 0 0.031 0.063 0.056 0.147 0.056 0.139 0 1.203-0.815 1.437-1.101 0.069-0.088 0.216-1.255 0.552-4.337 0.248-2.317 0.449-4.224 0.436-4.231-0.005-0.012-0.171 0.037-0.368 0.108-0.493 0.171-1.564 0.355-2.849 0.487-1.393 0.139-6.111 0.159-7.492 0.031-1.285-0.12-2.527-0.316-3.053-0.487l-0.455-0.148v0.139l-0.003 0.004zM10.805 24.511c0 0.012 0.203 0.367 0.444 0.785l0.449 0.765 0.184 2.544 0.191 2.553 0.191 0.164c0.475 0.407 1.615 0.633 3.388 0.672 2.015 0.044 3.584-0.208 4.097-0.672l0.203-0.179 0.145-2.569 0.145-2.565 0.412-0.721c0.227-0.393 0.412-0.736 0.412-0.76 0-0.019-0.191 0.025-0.431 0.108-0.856 0.291-2.521 0.549-4.001 0.633-1.647 0.089-4.199-0.223-5.491-0.671-0.184-0.064-0.336-0.101-0.336-0.088h-0.003z"></path>
</svg>
