<!-- Generated by IcoMoon.io -->
<svg version="1.1" xmlns="http://www.w3.org/2000/svg" width="32" height="32" viewBox="0 0 32 32">
<title>jqueryui</title>
<path d="M0.618 14.291q-0.242-0.898-0.363-1.744t-0.173-1.865-0.069-2.296-0.017-3.038q0.242-0.898 0.483-1.485t0.622-0.915 0.95-0.466 1.502-0.138h25.517q1.105 0 1.692 0.414t0.863 1.088 0.328 1.537 0.052 1.761v7.147q-0.242 2.866-1.606 5.628t-3.522 4.92-4.955 3.487-5.904 1.329q-2.659 0-5.335-1.070t-4.851-3.073-3.608-4.851-1.606-6.37zM5.348 13.013q0 4.938 2.193 7.665t6.716 3.591q1.761 0.449 3.487 0.155t3.228-1.174 2.676-2.279 1.83-3.194q0.898-2.21 0.294-3.090t-3.263-0.397q-1.761 0-1.761 1.726-0.898 1.761-2.521 2.59t-3.418 0.38q-1.105-0.242-1.813-0.691t-1.088-1.105-0.518-1.554-0.138-2.003v-1.761q0-1.347-0.725-1.882t-1.623-0.535q-1.347-0.207-2.054 0t-1.053 0.708-0.397 1.243-0.052 1.606zM24.27 11.874q0.898 0.207 1.398 0.035t0.725-0.552 0.259-0.898 0.035-1.001q0.242-1.105 0.052-1.606t-0.639-0.725-1.070-0.293-1.278-0.311q-0.691-0.242-1.070 0.035t-0.604 0.76-0.38 1.088-0.363 1.053q-0.207 0.898 0.052 1.398t0.76 0.725 1.105 0.259 1.019 0.035z"></path>
</svg>
