<!-- Generated by IcoMoon.io -->
<svg version="1.1" xmlns="http://www.w3.org/2000/svg" width="32" height="32" viewBox="0 0 32 32">
<title>jquery</title>
<path d="M3.372 6.614q-0.199 4.335 0.994 7.795t3.341 6.026 4.991 4.176 5.986 2.188 6.324 0.060 5.966-2.188q-3.381 6.682-13.403 6.682-11.255-1.193-15.67-11.216-1.67-3.381-1.491-6.741t2.963-6.781zM12.321 3.591q0.278 4.256 1.69 7.318t3.858 4.812 5.926 2.148 7.974-0.756q-1.153 1.67-3.003 2.665t-4.017 1.193-4.435-0.358-4.216-1.989q-2.267-1.392-3.659-3.182t-1.869-3.758-0.060-4.037 1.81-4.057zM29.503 10.352q-2.227 1.71-4.474 1.352t-4.435-2.068q-0.835-1.114-1.392-2.148t-0.696-2.088 0.159-2.207 1.134-2.545q0 2.506 0.676 4.335t1.929 3.023 3.062 1.77 4.037 0.577z"></path>
</svg>
