<!-- Generated by IcoMoon.io -->
<svg version="1.1" xmlns="http://www.w3.org/2000/svg" width="32" height="32" viewBox="0 0 32 32">
<title>laravel</title>
<path d="M3.844 0c8.178 0 17.371 0 25.548 0 1.819 0 2.56 0.296 2.56 1.876-1.83 0.282-4.32 0.602-6.065 0.883-1.364 0.22-2.73 0.432-4.083 0.711-1.292 0.267-1.433 0.662-0.702 1.719 0.445 0.643 0.911 1.27 1.363 1.909 1.427 2.017 2.898 4.101 4.322 6.117-0.161 0.089-11.607 2.821-17.255 4.19-0.685 0.166-1.004-0.094-1.337-0.655-2.448-4.124-8.192-13.657-8.192-13.657s-0.275-3.094 3.84-3.094z"></path>
<path d="M0.004 22.613c2.231-0.57 4.458-1.154 6.697-1.69 0.269-0.065 0.772 0.029 0.877 0.214 2.052 3.606 4.061 7.237 6.079 10.863-3.271 0-6.542 0-9.813 0-1.993 0-3.84-2.325-3.84-3.84 0-1.849 0-3.698 0-5.547z"></path>
<path d="M0.004 7.893c1.969 3.368 3.938 6.736 6.033 10.319-2.092 0.49-4.062 0.952-6.033 1.414 0-3.911 0-7.822 0-11.733z"></path>
<path d="M21.764 32c3.336-1.227 6.672-2.453 10.052-3.696 0.011 1.489-0.521 3.696-3.439 3.696-2.204 0-4.409 0-6.613 0z"></path>
<path d="M10.129 20.020c6.067-1.479 18.711-4.516 18.711-4.516l3.112 4.232-0.049 5.547c0 0-10.123 3.372-14.833 4.913-0.31 0.101-0.954-0.109-1.116-0.374-1.952-3.203-3.843-6.444-5.825-9.802z"></path>
<path d="M23.54 5.234c2.478-0.459 4.758-0.909 7.053-1.226 1.413-0.195 1.342 0.961 1.354 1.521 0.044 2.205-0.001 6.445-0.001 6.445s-0.682 0.198-0.716 0.209c-2.122 0.656-2.122 0.656-3.415-1.109-1.378-1.882-2.756-3.765-4.275-5.84z"></path>
<path d="M31.904 14.701c0 0.618 0 1.068 0 1.773-0.415-0.541-0.711-0.926-1.086-1.414 0.368-0.122 0.662-0.219 1.086-0.359z"></path>
</svg>
