<!-- Generated by IcoMoon.io -->
<svg version="1.1" xmlns="http://www.w3.org/2000/svg" width="32" height="32" viewBox="0 0 32 32">
<title>less2</title>
<path d="M30.285 20.625c0 1.491-1.36 2.401-2.85 2.401h-22.777c-1.491 0-2.71-1.22-2.71-2.71v-2.248c0 0 0.027-0.552-0.534-1.14-0.444-0.464-1.198-0.597-1.198-0.597l0.003-0.76c0 0 0.957-0.276 1.329-0.748 0.384-0.489 0.4-1.032 0.4-1.032v-2.105c0-0.433 0.040-0.88 0.108-1.040 0.174-0.404 0.455-0.756 0.622-0.925 0.194-0.197 0.494-0.372 0.854-0.547 0.153-0.075 0.592-0.198 1.126-0.198h22.777c1.49 0 2.911 1.24 2.911 2.731 0 0-0.064 2.198 0.113 2.694 0.315 0.879 1.402 1.136 1.402 1.136v0.837c0 0-1.020 0.273-1.368 1.052-0.292 0.652-0.207 3.199-0.208 3.199v0zM8.616 18.396h-0.363c-0.394 0-0.543-0.207-0.543-0.624v-7.65c0-0.46-0.133-0.783-0.303-0.969s-0.465-0.184-0.886-0.184h-0.819l-0.096-0.002v0.008l-0.001 1.139v8.028c0 0.638 0.144 1.106 0.399 1.403s0.687 0.445 1.296 0.445c0.421 0 0.9-0.044 1.436-0.133 0.027-0.090 0.040-0.281 0.040-0.576s-0.054-0.59-0.161-0.885v0l0-0zM15.098 15.91c0-0.408-0.065-0.784-0.195-1.13s-0.315-0.642-0.557-0.891c-0.242-0.248-0.535-0.443-0.879-0.585s-0.732-0.355-1.161-0.355c-0.51 0-0.955 0.231-1.336 0.408s-0.693 0.421-0.939 0.731c-0.247 0.311-0.43 0.676-0.551 1.097s-0.181 0.88-0.181 1.376c0 0.513 0.049 0.988 0.148 1.423s0.266 0.81 0.503 1.13c0.237 0.319 0.546 0.567 0.926 0.744s0.852 0.313 1.416 0.313c1.038 0 1.915-0.3 2.631-0.805-0.071-0.513-0.254-0.922-0.548-1.223-0.366 0.137-0.689 0.236-0.97 0.296s-0.528 0.090-0.742 0.090c-0.428 0-0.736-0.109-0.923-0.329s-0.289-0.478-0.307-0.872h3.49c0.115-0.373 0.173-0.876 0.173-1.417l0.001-0.001zM11.421 16.002c0.027-0.452 0.109-0.936 0.247-1.136s0.348-0.299 0.632-0.299c0.293 0 0.513 0.106 0.659 0.319s0.22 0.641 0.22 0.969l0 0.147h-1.759zM24.622 12.948c-0.518 0.008-0.701 0.069-0.922 0.143-0.483 0.163-0.932 0.479-1.172 0.726-0.307 0.316-0.452 0.63-0.536 1.122-0.055 0.32-0.026 0.753 0.109 1.058 0.208 0.471 0.502 0.723 0.742 0.881 0.358 0.236 0.596 0.315 0.804 0.4 0.256 0.105 0.783 0.279 1.030 0.403 0.175 0.088 0.251 0.203 0.293 0.298 0.052 0.118 0.028 0.28-0.012 0.361-0.042 0.084-0.159 0.158-0.225 0.192-0.213 0.109-0.603 0.131-1.229-0.012-0.428-0.098-1.144-0.458-1.144-0.458s-0.203 0.173-0.43 0.74c-0.127 0.317-0.147 0.669-0.147 0.669s0.493 0.343 1.607 0.607c0.341 0.080 1.051 0.111 1.399 0.070 0.568-0.068 0.994-0.209 1.392-0.438 0.3-0.172 0.692-0.575 0.794-0.846 0.192-0.505 0.213-0.88 0.177-1.176-0.023-0.192-0.13-0.572-0.232-0.736-0.168-0.269-0.231-0.44-0.926-0.868-0.415-0.256-1.236-0.394-1.797-0.753-0.101-0.064-0.184-0.256-0.147-0.418 0.016-0.066 0.099-0.186 0.155-0.223 0.1-0.066 0.195-0.107 0.468-0.097 0.253 0.009 0.649 0.074 0.993 0.193 0.203 0.070 0.801 0.311 0.801 0.311s0.258-0.169 0.441-0.661c0.162-0.436 0.136-0.788 0.136-0.788s-0.504-0.355-1.29-0.562c-0.276-0.073-0.846-0.142-1.131-0.138v0.001zM18.68 12.948c-0.518 0.008-0.701 0.069-0.922 0.143-0.483 0.163-0.932 0.479-1.172 0.726-0.307 0.316-0.452 0.63-0.536 1.122-0.055 0.32-0.026 0.753 0.109 1.058 0.208 0.471 0.502 0.723 0.742 0.881 0.358 0.236 0.596 0.315 0.804 0.4 0.256 0.105 0.783 0.279 1.030 0.403 0.175 0.088 0.251 0.203 0.293 0.298 0.052 0.118 0.028 0.28-0.012 0.361-0.042 0.084-0.159 0.158-0.225 0.192-0.213 0.109-0.603 0.131-1.229-0.012-0.428-0.098-1.144-0.458-1.144-0.458s-0.203 0.173-0.43 0.74c-0.127 0.317-0.147 0.669-0.147 0.669s0.493 0.343 1.607 0.607c0.341 0.080 1.051 0.111 1.399 0.070 0.568-0.068 0.994-0.209 1.392-0.438 0.3-0.172 0.692-0.575 0.794-0.846 0.192-0.505 0.213-0.88 0.177-1.176-0.023-0.192-0.13-0.572-0.232-0.736-0.168-0.269-0.231-0.44-0.926-0.868-0.415-0.256-1.236-0.394-1.797-0.753-0.101-0.064-0.184-0.256-0.147-0.418 0.016-0.066 0.099-0.186 0.155-0.223 0.1-0.066 0.195-0.107 0.468-0.097 0.253 0.009 0.649 0.074 0.993 0.193 0.203 0.070 0.801 0.311 0.801 0.311s0.258-0.169 0.441-0.661c0.162-0.436 0.136-0.788 0.136-0.788s-0.504-0.354-1.29-0.562c-0.276-0.073-0.846-0.142-1.131-0.138v0.001zM4.153 8.976v0.002c-0.144-0.001-0.275-0.001-0.379-0.001-0.452-0.004-0.83 0.243-1.158 0.5-0.359 0.282-0.666 0.649-0.762 1.142-0.055 0.289-0.043 0.541-0.043 0.794v1.988c0 0.702-0.261 1.224-0.616 1.565-0.2 0.198-0.626 0.378-1.11 0.541v0.898c0.429 0.118 0.843 0.279 1.072 0.482 0.38 0.332 0.653 0.809 0.653 1.432v2.322c0 0.772 0.184 1.359 0.72 1.762s1.16 0.603 1.872 0.623l0.477-0.003v-1.158c-0.372-0.109-0.579-0.235-0.728-0.378-0.268-0.243-0.42-0.637-0.42-1.185v-1.875c-0.010-0.638-0.113-1.136-0.345-1.497s-0.685-0.676-1.36-0.948c0.744-0.341 1.244-0.785 1.498-1.334 0.15-0.326 0.207-0.766 0.207-1.319v-1.719c0-0.568 0.132-0.966 0.36-1.193 0.124-0.124 0.344-0.225 0.65-0.307l0.484 0.004c0-0.416 0-0.677 0-1.138l-1.072 0zM27.228 9.146l0.008 0.978c0 0 0.371-0.107 0.829 0.365 0.547 0.564 0.124 3.104 0.35 3.979 0.248 0.961 1.564 1.514 1.564 1.514s-1.1 0.263-1.36 0.948c-0.327 0.862 0.048 3.624-0.356 4.441-0.173 0.35-1.083 0.494-1.083 0.494v1.040c0 0 1.694-0.037 2.352-0.788 0.576-0.658 0.546-1.341 0.546-1.341l0.002-2.149c0 0-0.011-0.804 0.337-1.445 0.395-0.728 1.268-0.906 1.268-0.906l-0.007-0.638c0 0-0.957-0.26-1.299-0.735-0.364-0.505-0.306-1.448-0.306-1.448l0.021-2.185c0 0-0.083-0.655-0.981-1.537-0.604-0.593-1.886-0.585-1.886-0.585h0z"></path>
</svg>
