<!-- Generated by IcoMoon.io -->
<svg version="1.1" xmlns="http://www.w3.org/2000/svg" width="25" height="32" viewBox="0 0 25 32">
<title>less</title>
<path d="M20.070 15.875q1.428 0.501 1.428 1.704 0 0.877-0.651 1.303t-1.604 0.426q-1.077 0-2.004-0.551 0-0.226 0.138-0.576t0.313-0.526q0.852 0.451 1.503 0.451 0.2 0 0.401-0.088t0.2-0.288q0-0.301-0.476-0.476l-0.601-0.226q-1.328-0.501-1.328-1.579 0-0.752 0.589-1.315t1.466-0.564q0.501 0 1.040 0.175t0.94 0.426q0 0.251-0.138 0.626t-0.338 0.501q-0.777-0.401-1.478-0.401-0.451 0-0.451 0.351 0 0.226 0.401 0.376zM15.359 15.875q1.428 0.501 1.428 1.704 0 0.877-0.651 1.303t-1.604 0.426q-1.077 0-2.004-0.551 0-0.2 0.125-0.551t0.326-0.551q0.852 0.451 1.478 0.451 0.251 0 0.438-0.088t0.188-0.288q0-0.276-0.501-0.476l-0.576-0.226q-0.677-0.276-1.015-0.639t-0.338-0.94q0-0.802 0.626-1.341t1.453-0.539q0.15 0 0.463 0.050t0.651 0.138 0.589 0.213 0.251 0.276q0 0.2-0.125 0.564t-0.326 0.489q-0.802-0.401-1.503-0.401-0.175 0-0.301 0.075t-0.125 0.276q0 0.226 0.401 0.376zM11.927 15.95q0 0.326-0.025 0.601t-0.125 0.526h-2.756q0 0.376 0.213 0.664t0.764 0.288q0.276 0 0.576-0.075l0.802-0.251q0.326 0.401 0.401 0.977-0.852 0.626-2.055 0.626-0.727 0-1.19-0.238t-0.739-0.639-0.376-0.915-0.1-1.065q0-0.15 0.050-0.614t0.276-0.965 0.714-0.889 1.366-0.388q0.376 0 0.764 0.163t0.714 0.463 0.526 0.739 0.2 0.99zM10.398 16.025v-0.125q0-0.551-0.188-0.789t-0.489-0.238q-0.426 0-0.551 0.301t-0.175 0.852h1.403zM24.405 16.701q-0.451 0.451-0.451 1.153v1.854q0 0.952-0.639 1.416t-1.441 0.463h-0.351v-0.927q0.902-0.2 0.902-1.228v-1.478q0.025-0.401 0.075-0.702t0.188-0.526 0.376-0.401 0.664-0.326q-0.727-0.301-1.015-0.752t-0.288-1.353v-1.378q0-0.551-0.226-0.827t-0.677-0.401v-0.852h0.827q0.376 0 0.664 0.188t0.501 0.476 0.326 0.626 0.113 0.639v1.579q0 0.702 0.288 1.090t0.915 0.589v0.727q-0.276 0.050-0.439 0.138t-0.313 0.213zM4.385 10.438v0.902h-0.677q-0.501 0.125-0.651 0.388t-0.15 0.789v1.378q0 0.827-0.288 1.29t-1.065 0.814q0.777 0.301 1.065 0.727t0.288 1.228v1.478q0 0.551 0.213 0.827t0.689 0.401v0.927h-0.351q-0.802 0-1.428-0.426t-0.626-1.453v-1.829q0-0.651-0.376-1.027t-1.027-0.501v-0.727q0.702-0.2 1.052-0.576t0.351-1.102v-1.579q0-0.075-0.012-0.15t-0.012-0.175q0-0.326 0.15-0.614t0.388-0.514 0.514-0.351 0.526-0.125h1.428zM6.79 17.929q0.125 0.451 0.125 0.702 0 0.2-0.050 0.451-0.426 0.1-1.128 0.1-1.353 0-1.353-1.478v-7.291h0.752q0.476 0 0.714 0.213t0.238 0.714v6.089q0 0.501 0.401 0.501h0.301z"></path>
</svg>
