<!-- Generated by IcoMoon.io -->
<svg version="1.1" xmlns="http://www.w3.org/2000/svg" width="43" height="32" viewBox="0 0 43 32">
<title>mariadb</title>
<path d="M37.817 0c0.38 0.174 0.502 0.478 0.496 0.883-0.013 0.868-0.287 1.627-0.915 2.228-0.434 0.415-0.911 0.785-1.365 1.179-0.296 0.256-0.596 0.51-0.877 0.782-0.674 0.652-0.963 1.49-1.129 2.386-0.436 2.352-1.057 4.658-1.735 6.951-0.325 1.098-0.203 2.198 0.305 3.226 0.16 0.324 0.451 0.583 0.684 0.875-1.077 0.927-3.114 0.67-4.275-0.597-0.369 0.042-0.674 0.241-0.918 0.509-0.262 0.288-0.524 0.592-0.71 0.931-0.563 1.031-1.421 1.677-2.522 2.015-0.72 0.221-1.449 0.421-2.182 0.596-0.275 0.066-0.572 0.034-0.891-0.005 0.301-0.572 0.7-1.048 1.058-1.553 0.357-0.503 0.679-1.025 0.88-1.674-0.284-0.052-0.551-0.116-0.821-0.149-1.596-0.198-3.19-0.41-4.79-0.573-0.977-0.1-1.959-0.038-2.928 0.139-0.753 0.138-1.439 0.451-2.076 0.871-0.502 0.331-0.987 0.689-1.495 1.011-1.348 0.854-2.819 1.29-4.419 1.209-0.398-0.020-0.805-0.115-1.18-0.252-0.423-0.154-0.451-0.471-0.104-0.764 0.17-0.144 0.369-0.253 0.55-0.384 0.118-0.085 0.227-0.182 0.357-0.287-0.42-0.066-0.792-0.095-1.145-0.193-0.172-0.048-0.308-0.224-0.479-0.356 0.265-0.393 0.624-0.595 1.011-0.756 0.708-0.294 1.462-0.356 2.216-0.418 0.571-0.047 1.143-0.095 1.711-0.171 0.545-0.073 1.016-0.306 1.352-0.762 0.233-0.315 0.502-0.611 0.685-0.953 0.546-1.018 1.373-1.749 2.294-2.409 1.576-1.129 3.333-1.799 5.222-2.178 1.466-0.294 2.92-0.634 4.302-1.238 1.241-0.542 2.261-1.345 3.020-2.458 0.646-0.947 1.244-1.927 1.861-2.894 0.58-0.91 1.179-1.803 1.975-2.548 0.891-0.833 1.941-1.301 3.144-1.45 0.624-0.078 1.256-0.127 1.868-0.262 0.526-0.115 1.030-0.333 1.544-0.506 0.14-0 0.28-0 0.42-0zM29.092 17.145c0.188-0.114 0.334-0.189 0.466-0.284 0.875-0.63 1.47-1.489 1.954-2.432 0.623-1.213 1.035-2.505 1.36-3.824 0.324-1.316 0.634-2.636 0.917-3.962 0.201-0.943 0.698-1.663 1.474-2.211 0.389-0.274 0.792-0.532 1.155-0.838 0.35-0.295 0.683-0.621 0.973-0.975 0.226-0.277 0.357-0.623 0.347-1.008-0.248-0.069-0.496-0.093-0.695-0.205-0.193-0.109-0.335-0.307-0.516-0.483-0.526 0.28-1.118 0.256-1.705 0.255-1.835-0.002-3.307 0.727-4.407 2.195-0.268 0.358-0.526 0.726-0.761 1.106-0.544 0.881-1.066 1.775-1.605 2.659-0.869 1.425-2.051 2.5-3.573 3.203-1.185 0.547-2.397 1.003-3.683 1.247-1.389 0.264-2.762 0.573-4.056 1.174-1.796 0.834-3.402 1.882-4.424 3.655-0.201 0.348-0.489 0.646-0.741 0.964-0.264 0.334-0.61 0.546-1.029 0.592-0.889 0.097-1.783 0.147-2.671 0.256-0.551 0.068-1.098 0.188-1.637 0.323-0.232 0.058-0.457 0.197-0.515 0.485 0.554 0.303 1.167 0.1 1.819 0.26-0.18 0.214-0.3 0.398-0.46 0.536-0.189 0.164-0.419 0.279-0.619 0.432-0.109 0.083-0.194 0.199-0.363 0.377 0.413 0.048 0.712 0.098 1.013 0.115 1.683 0.097 3.195-0.437 4.618-1.28 0.457-0.271 0.901-0.565 1.354-0.844 0.978-0.602 2.018-1.002 3.182-1.084 1.227-0.086 2.43 0.092 3.637 0.233 1.057 0.123 2.112 0.247 3.18 0.211 0.378-0.013 0.651-0.156 0.819-0.481 0.147-0.285 0.272-0.581 0.399-0.876 0.143-0.333 0.266-0.676 0.421-1.004 0.087-0.184 0.211-0.358 0.457-0.396 0.024 2.343-0.974 4.277-2.358 6.071 0.092 0.029 0.118 0.045 0.144 0.044 0.056-0.001 0.112-0.005 0.166-0.017 1.496-0.334 2.759-1.058 3.751-2.236 0.805-0.955 1.344-2.056 1.785-3.213 0.036-0.094 0.084-0.184 0.126-0.276 0.035 0.003 0.069 0.005 0.104 0.008 0.063 0.488 0.126 0.976 0.197 1.528zM31.515 15.695c-0.037-0.016-0.074-0.031-0.111-0.047-0.168 0.185-0.344 0.364-0.501 0.557-0.307 0.378-0.631 0.746-0.895 1.153-0.206 0.318-0.148 0.444 0.173 0.655 0.393 0.258 0.835 0.377 1.298 0.435 0.305 0.038 0.605 0.079 0.927-0.056-0.52-0.84-0.729-1.76-0.892-2.696z"></path>
<path d="M0 31.598c0.086-0.462 0.187-0.923 0.254-1.388 0.293-2.033 0.576-4.068 0.901-6.118 0.435 0.654 0.742 1.374 1.094 2.068 0.355 0.698 0.695 1.403 1.043 2.104 0.352 0.708 0.707 1.415 1.099 2.2 1.076-2.182 2.11-4.28 3.145-6.378 0.033 0.003 0.065 0.006 0.098 0.009 0.365 2.543 0.731 5.086 1.102 7.669-0.257 0-0.471 0-0.72 0-0.248-1.803-0.494-3.595-0.74-5.387-0.033-0.008-0.066-0.016-0.1-0.024-0.926 1.808-1.788 3.65-2.783 5.456-0.556-0.897-0.986-1.828-1.444-2.744-0.457-0.911-0.908-1.824-1.414-2.736-0.346 1.799-0.526 3.616-0.816 5.438-0.255 0-0.487 0-0.72 0-0-0.056-0-0.112-0-0.168z"></path>
<path d="M38.872 24.058c0.827 0.010 1.639-0.079 2.437 0.099 0.741 0.166 1.317 0.545 1.481 1.356 0.16 0.793-0.085 1.431-0.732 1.916-0.043 0.032-0.081 0.070-0.156 0.135 0.114 0.064 0.201 0.121 0.294 0.165 0.875 0.406 1.298 1.049 1.269 1.935-0.030 0.906-0.542 1.616-1.407 1.946-0.117 0.045-0.238 0.105-0.359 0.111-0.932 0.042-1.865 0.072-2.828 0.106 0-2.619 0-5.161 0-7.769zM39.595 31.135c0.69-0.049 1.333-0.052 1.961-0.151 0.606-0.096 1.077-0.644 1.143-1.195 0.071-0.592-0.228-1.143-0.794-1.451-0.097-0.053-0.202-0.097-0.308-0.13-0.651-0.207-1.315-0.157-2.002-0.136-0 1.011-0 1.983-0 3.062zM39.597 27.3c0.642 0.041 1.238 0.028 1.8-0.227 0.489-0.222 0.737-0.69 0.681-1.234-0.055-0.533-0.333-0.843-0.883-0.98-0.521-0.129-1.047-0.081-1.597-0.068 0 0.843 0 1.648 0 2.508z"></path>
<path d="M30.694 31.737c0-2.556 0-5.088 0-7.611 0.035-0.026 0.056-0.056 0.079-0.056 1.133-0.024 2.268-0.058 3.393 0.129 1.607 0.266 2.745 1.44 2.958 3.057 0.125 0.948 0.054 1.867-0.402 2.735-0.554 1.054-1.429 1.658-2.598 1.741-1.087 0.077-2.182 0.042-3.274 0.053-0.039 0-0.078-0.024-0.156-0.050zM31.398 31.153c0.968-0.055 1.895-0.045 2.802-0.174 1.119-0.16 1.8-0.89 2.115-1.96 0.156-0.53 0.177-1.078 0.079-1.619-0.204-1.125-0.783-1.978-1.901-2.348-0.995-0.329-2.033-0.287-3.095-0.261 0 2.105 0 4.181 0 6.362z"></path>
<path d="M15.161 27.088c0.020-0.371 0.036-0.668 0.053-0.984 0.228 0 0.417 0 0.63 0 0 1.886 0 3.753 0 5.656-0.196 0-0.383 0-0.619 0-0.022-0.275-0.043-0.556-0.072-0.92-0.747 0.8-1.564 1.277-2.629 1.136-0.817-0.108-1.476-0.493-1.979-1.142-0.985-1.27-0.806-3.068 0.41-4.163 1.198-1.078 2.809-0.943 4.205 0.418zM15.223 28.979c0.001-1.34-0.997-2.359-2.309-2.359-1.263 0-2.281 1.039-2.295 2.344-0.014 1.3 1.035 2.392 2.301 2.392 1.289 0.001 2.302-1.045 2.303-2.378z"></path>
<path d="M28.267 27.087c0.021-0.37 0.038-0.667 0.056-0.983 0.229 0 0.418 0 0.63 0 0 1.887 0 3.753 0 5.656-0.196 0-0.383 0-0.623 0-0.021-0.275-0.042-0.556-0.069-0.92-0.747 0.799-1.564 1.276-2.629 1.135-0.817-0.108-1.475-0.495-1.979-1.142-0.985-1.265-0.805-3.071 0.411-4.164 1.201-1.079 2.809-0.943 4.203 0.417zM26.046 26.62c-1.281-0.006-2.325 1.056-2.32 2.362 0.004 1.291 1.035 2.364 2.279 2.374 1.293 0.010 2.318-1.027 2.327-2.354 0.009-1.344-0.982-2.376-2.286-2.382z"></path>
<path d="M17.185 26.1c0.235 0 0.44 0 0.676 0 0.015 0.243 0.030 0.472 0.051 0.806 0.465-0.733 0.965-1.225 1.87-0.782-0.104 0.186-0.203 0.363-0.297 0.531-0.678-0.054-0.98 0.119-1.276 0.717-0.235 0.475-0.297 0.99-0.309 1.507-0.019 0.797-0.011 1.594-0.014 2.391-0.001 0.152-0 0.304-0 0.491-0.246 0-0.459 0-0.7 0 0-1.879 0-3.747 0-5.66z"></path>
<path d="M21.556 31.76c-0.115 0.014-0.21 0.034-0.304 0.035-0.109 0.001-0.219-0.016-0.356-0.028 0-1.883 0-3.747 0-5.649 0.207 0 0.421 0 0.661 0 0 1.877 0 3.752 0 5.642z"></path>
<path d="M21.218 25.036c-0.332-0.004-0.574-0.255-0.568-0.588s0.258-0.578 0.587-0.57c0.315 0.007 0.586 0.283 0.581 0.592-0.005 0.313-0.277 0.571-0.6 0.567z"></path>
<path d="M32.731 2.982c0.185-0.713 0.743-1.019 1.522-0.836 0.088 0.368-0.046 0.655-0.355 0.851-0.387 0.245-0.783 0.254-1.167-0.015z"></path>
</svg>
