<!-- Generated by IcoMoon.io -->
<svg version="1.1" xmlns="http://www.w3.org/2000/svg" width="32" height="32" viewBox="0 0 32 32">
<title>mariadb2</title>
<path d="M31.636 5.333c0.369 0.169 0.487 0.464 0.481 0.857-0.013 0.841-0.279 1.578-0.887 2.161-0.421 0.403-0.883 0.762-1.324 1.143-0.287 0.249-0.577 0.494-0.85 0.758-0.653 0.632-0.934 1.445-1.095 2.313-0.423 2.281-1.025 4.517-1.683 6.74-0.315 1.065-0.197 2.131 0.295 3.128 0.155 0.314 0.437 0.565 0.663 0.848-1.044 0.899-3.020 0.649-4.145-0.579-0.357 0.041-0.653 0.233-0.89 0.493-0.255 0.279-0.509 0.574-0.688 0.903-0.546 1-1.379 1.626-2.446 1.954-0.699 0.215-1.405 0.408-2.115 0.577-0.266 0.063-0.555 0.033-0.864-0.005 0.292-0.555 0.679-1.017 1.026-1.505 0.346-0.487 0.659-0.993 0.853-1.623-0.276-0.051-0.535-0.112-0.797-0.145-1.547-0.191-3.093-0.397-4.645-0.556-0.947-0.097-1.9-0.037-2.839 0.135-0.73 0.133-1.395 0.437-2.013 0.845-0.487 0.321-0.957 0.669-1.45 0.981-1.307 0.828-2.733 1.251-4.285 1.172-0.385-0.019-0.78-0.112-1.144-0.244-0.411-0.149-0.438-0.457-0.101-0.741 0.165-0.139 0.357-0.245 0.533-0.373 0.114-0.083 0.221-0.177 0.346-0.279-0.407-0.064-0.767-0.093-1.11-0.187-0.167-0.046-0.299-0.217-0.465-0.345 0.257-0.381 0.605-0.577 0.98-0.733 0.687-0.285 1.417-0.345 2.149-0.405 0.554-0.046 1.109-0.092 1.659-0.165 0.529-0.071 0.985-0.297 1.311-0.739 0.225-0.305 0.487-0.592 0.664-0.923 0.529-0.987 1.331-1.695 2.224-2.335 1.528-1.095 3.231-1.745 5.063-2.113 1.421-0.285 2.831-0.615 4.171-1.201 1.203-0.525 2.193-1.304 2.929-2.383 0.627-0.919 1.207-1.869 1.805-2.806 0.563-0.883 1.143-1.749 1.915-2.471 0.863-0.807 1.882-1.261 3.049-1.407 0.605-0.075 1.218-0.123 1.812-0.254 0.511-0.112 0.999-0.323 1.497-0.49 0.136 0 0.272 0 0.408 0l0.001-0.001zM23.175 21.959c0.183-0.111 0.324-0.183 0.451-0.275 0.849-0.611 1.425-1.444 1.895-2.358 0.604-1.177 1.004-2.429 1.319-3.708 0.314-1.276 0.615-2.557 0.889-3.842 0.195-0.914 0.677-1.613 1.429-2.144 0.377-0.266 0.769-0.516 1.12-0.813 0.339-0.287 0.663-0.602 0.943-0.945 0.219-0.269 0.347-0.605 0.336-0.977-0.24-0.067-0.481-0.090-0.674-0.199-0.187-0.105-0.325-0.298-0.5-0.468-0.51 0.271-1.084 0.248-1.653 0.247-1.779-0.003-3.207 0.705-4.273 2.129-0.26 0.347-0.51 0.704-0.738 1.073-0.527 0.854-1.033 1.721-1.556 2.578-0.843 1.381-1.989 2.424-3.464 3.106-1.149 0.531-2.324 0.973-3.571 1.209-1.347 0.255-2.679 0.555-3.933 1.139-1.741 0.809-3.299 1.825-4.29 3.544-0.195 0.337-0.475 0.627-0.719 0.935-0.255 0.323-0.592 0.529-0.998 0.573-0.862 0.094-1.729 0.143-2.59 0.249-0.534 0.065-1.065 0.182-1.587 0.313-0.225 0.057-0.443 0.191-0.499 0.471 0.537 0.294 1.131 0.097 1.764 0.252-0.175 0.207-0.291 0.386-0.445 0.519-0.183 0.159-0.406 0.271-0.6 0.419-0.106 0.081-0.188 0.193-0.351 0.365 0.401 0.047 0.691 0.095 0.982 0.111 1.632 0.095 3.098-0.423 4.478-1.241 0.443-0.263 0.873-0.548 1.313-0.819 0.949-0.584 1.957-0.972 3.086-1.051 1.189-0.083 2.356 0.089 3.527 0.226 1.025 0.119 2.047 0.239 3.083 0.204 0.366-0.013 0.631-0.151 0.794-0.467 0.143-0.276 0.264-0.564 0.387-0.849 0.139-0.323 0.258-0.655 0.408-0.973 0.085-0.179 0.205-0.347 0.443-0.385 0.023 2.272-0.945 4.148-2.287 5.887 0.089 0.028 0.114 0.043 0.139 0.043 0.054-0.001 0.109-0.005 0.161-0.016 1.45-0.323 2.675-1.026 3.637-2.168 0.78-0.926 1.303-1.994 1.731-3.115 0.035-0.091 0.081-0.179 0.123-0.268 0.033 0.003 0.067 0.005 0.101 0.008 0.061 0.473 0.122 0.946 0.191 1.482l-0.001-0.001zM25.525 20.552c-0.036-0.015-0.071-0.030-0.107-0.045-0.163 0.18-0.333 0.353-0.486 0.541-0.297 0.366-0.612 0.723-0.867 1.118-0.2 0.309-0.144 0.431 0.167 0.635 0.381 0.25 0.809 0.365 1.259 0.421 0.295 0.037 0.587 0.077 0.899-0.055-0.504-0.815-0.707-1.707-0.864-2.615v0z"></path>
<path d="M26.703 8.225c0.179-0.691 0.721-0.988 1.476-0.811 0.085 0.357-0.044 0.635-0.344 0.825-0.375 0.237-0.759 0.247-1.132-0.015z"></path>
</svg>
