<!-- Generated by IcoMoon.io -->
<svg version="1.1" xmlns="http://www.w3.org/2000/svg" width="32" height="32" viewBox="0 0 32 32">
<title>mongodb</title>
<path d="M23.119 14.193c-0.071-0.812-0.22-1.623-0.427-2.411-0.655-2.485-1.748-4.865-3.289-6.929-0.42-0.563-0.873-1.099-1.359-1.607-0.499-0.525-1.053-1.005-1.403-1.656-0.22-0.413-0.429-0.831-0.644-1.247-0.003 0.131-0.011 0.26-0.011 0.391 0-0.132 0.009-0.26 0.011-0.391-0.037-0.1-0.080-0.203-0.136-0.344-0.024 0.079-0.037 0.107-0.037 0.136-0.019 0.676-0.403 1.137-0.88 1.565-0.536 0.483-1.036 1.007-1.553 1.513 0.019 0.023 0.037 0.045 0.057 0.069-0.020-0.024-0.039-0.045-0.057-0.069-1.535 2.019-2.888 4.176-3.685 6.599-0.232 0.705-0.413 1.427-0.541 2.159-0.272 1.553-0.399 3.064-0.311 4.639 0.048 0.869 0.2 1.727 0.427 2.569 0.823 3.061 2.497 5.599 4.784 7.756 0.424 0.401 0.883 0.765 1.328 1.147 0-0.004 0.001-0.007 0.001-0.011 0 0.004-0.001 0.007-0.001 0.011 0.064 0.225 0.131 0.451 0.195 0.673 0.060 0.349 0.121 0.696 0.183 1.045 0.029 0.363 0.059 0.728 0.087 1.089-0.001 0.221-0.011 0.445 0.003 0.664 0.004 0.057 0.079 0.111 0.119 0.164 0.001-0.001 0.003-0.004 0.005-0.005-0.001 0.001-0.003 0.004-0.005 0.005 0.125 0.043 0.248 0.088 0.371 0.132 0.111 0.043 0.223 0.085 0.385 0.149-0.025-0.363-0.045-0.667-0.067-0.971-0.001-0.317-0.001-0.637-0.004-0.955-0.007 0.007-0.015 0.015-0.023 0.021 0.008-0.007 0.016-0.015 0.023-0.021 0.045-0.485 0.089-0.971 0.133-1.456 0.033-0.105 0.065-0.211 0.097-0.316 0.092-0.163 0.184-0.325 0.276-0.489 0.341-0.276 0.707-0.524 1.019-0.829 0.563-0.553 1.124-1.112 1.628-1.717 0.651-0.785 1.215-1.641 1.667-2.561 1.283-2.613 1.877-5.529 1.64-8.436-0.001-0.024-0.003-0.052-0.004-0.076v0z"></path>
</svg>
