<!-- Generated by IcoMoon.io -->
<svg version="1.1" xmlns="http://www.w3.org/2000/svg" width="32" height="32" viewBox="0 0 32 32">
<title>mysql2</title>
<path d="M29.787 24.82q0-0.439-0.603-0.841t-0.969-0.549q-0.512-0.366-0.987-0.713t-1.024-0.603q-0.439-0.329-0.841-0.439t-0.805-0.256q-0.475-0.183-1.243-0.347t-0.951-0.53q-0.475-0.695-0.896-1.481t-0.786-1.664q-0.402-0.695-0.805-1.499t-0.768-1.682q-0.146-0.439-0.238-0.859t-0.384-0.677q-2.304-4.718-6.766-7.57-0.841-0.549-1.627-0.951t-1.737-0.695q-0.549-0.183-1.024-0.183h-1.426q-0.329-0.183-0.567-0.457t-0.53-0.494q-0.475-0.293-1.079-0.494t-1.298-0.494q-0.11 0-0.603-0.201t-0.713-0.055q-0.219 0.256-0.219 0.475-0.183 0.146-0.091 0.366t0.091 0.402q0.329 0.622 0.677 0.914t0.75 0.731q0.11 0.512 0.439 0.896t0.549 0.969q0.475 0.951 0.75 1.92t0.75 1.847q0.256 0.439 0.366 0.823t0.293 0.567q0.183 0.439 0.439 0.603t0.439 0.603q0.183 0.366-0.183 1.17t-0.512 1.28q-0.366 1.426-0.329 3.054t0.585 2.834q0.146 0.439 0.421 0.914t0.969 0.658v-0.183q0.183-0.841 0.219-1.682t0.475-1.719q0.183-0.402 0.402-0.658t0.366-0.731q0.475 0 0.512 0.256t0.037 0.439q0.183 0.549 0.439 1.115t0.439 1.152q0.695 0.987 1.225 2.030t1.225 1.993q0.805 0.695 1.097 1.317 0.402 0 0.695 0.549-0.475-0.219-0.841-0.603t-0.695-0.823q-1.865-1.024-2.889-2.889-0.256-0.512-0.475-0.987t-0.402-0.841v-0.183q-0.256 0.183-0.165 0.311t-0.201 0.311q-0.146 0.878-0.146 1.719t-0.622 0.987q-1.134 0.439-1.664-0.165t-0.859-0.896q-0.951-1.573-1.042-3.602t0.384-3.858q0.256-0.585 0.274-1.061t0.384-0.731q-0.183-0.366-0.293-0.457t-0.366-0.274q-0.293-0.329-0.439-0.677t-0.549-0.823q-0.402-0.695-0.567-1.426t-0.53-1.426q0-0.329-0.055-0.695t-0.238-0.622q-0.11-0.366-0.475-0.805t-0.622-0.805q-0.439-0.512-1.134-1.609t-0.183-1.975q0.329-0.768 1.042-0.951t1.481 0.037 1.573 0.567 1.353 0.603q0.183 0.219 0.439 0.421t0.439 0.384h1.829q0.695 0.183 1.445 0.402t1.152 0.549q2.889 1.682 4.882 3.566t3.639 4.846q0.585 0.878 1.207 2.45 0.439 1.024 0.969 2.011t0.896 1.865q0.439 0.549 0.567 0.914t0.311 0.914q0.146 0.183 0.457 0.219t0.494 0.219q0.695 0.183 1.225 0.347t1.225 0.53q0.805 0.695 1.829 1.39t1.755 1.573q0.366 0.183 0.53 0.567t0.64 0.567v0.219q-0.475 0.146-0.64 0.183t-0.53 0.219q-0.695 0.183-1.207 0.128t-0.951 0.165q-0.475 0.146-0.841 0.274t-0.878 0.128h0.293q0.146 0.695 1.042 1.207t1.518 0.841q0.695 0.512 1.17 1.042t1.024 1.262q0.219 0.073 0.622 0.585 0.219 0.146 0.256 0.274t0.219 0.347q-0.402-0.219-0.494-0.347t-0.384-0.274q-0.329-0.183-0.677-0.439t-0.713-0.439q-0.695-0.512-1.353-0.731t-1.353-0.585q-0.329-0.402-0.658-0.603t-0.658-0.494q-0.805-0.512-1.134-1.463-0.183-0.183-0.219-0.311t-0.293-0.274q0-0.475 0.384-0.512t0.567-0.037q0.841-0.439 1.92-0.53t2.359-0.091zM7.296 5.254q0.183 0.256 0.311 0.421t0.384 0.347v0.183q0 0.073 0.183 0.256 0 0.805-0.512 1.134h-0.183q0-0.329-0.128-0.512t-0.274-0.622q-0.219-0.183-0.384-0.366t-0.347-0.585q0.183 0 0.402-0.128t0.549-0.128z"></path>
</svg>
