<!-- Generated by IcoMoon.io -->
<svg version="1.1" xmlns="http://www.w3.org/2000/svg" width="32" height="32" viewBox="0 0 32 32">
<title>mysql</title>
<path d="M0 16.032q0-0.544 0.48-0.704 0.64-0.192 1.040-0.032t0.528 0.512l1.6 3.616 1.664-3.616q0.128-0.352 0.512-0.512t1.024 0.032q0.48 0.16 0.48 0.704v4.128h-1.088v-4.128l-1.6 3.648q-0.192 0.576-0.896 0.576-0.448 0-0.672-0.128t-0.352-0.448l-1.632-3.648v4.128h-1.088v-4.128zM8.224 16.768h1.088v2.336q-0.064 0.064 0.032 0.24t0.544 0.176h2.336v-2.752h1.056v3.744q0 0.384-0.192 0.608t-0.448 0.336-0.528 0.16-0.464 0.048h-3.424v-0.672h3.424q0.512-0.064 0.544-0.256t0.032-0.288v-0.288h-2.24q-0.832 0-1.296-0.304t-0.464-0.656v-2.432zM14.144 19.52h2.976q0.16 0 0.256-0.048t0.16-0.112q0.192-0.128 0.192-0.256v-0.704q0-0.032-0.096-0.128-0.128-0.096-0.576-0.224h-1.536q-0.672-0.064-1.024-0.368t-0.352-0.656v-0.576q0-0.416 0.192-0.672t0.704-0.352q0.128-0.096 0.8-0.096h2.944v0.704h-3.072q-0.256 0-0.352 0.080t-0.192 0.208v0.704q0.096 0.192 0.224 0.304t0.448 0.112h1.744t0.464 0.096q0.736 0.384 0.736 0.8v0.768q0 0.32-0.176 0.528t-0.496 0.4q-0.256 0.064-0.496 0.096t-0.496 0.032h-2.976v-0.64zM25.408 15.328h1.088v3.616q0 0.576 0.768 0.576h2.848v0.64h-3.104q-0.832-0.064-1.216-0.368t-0.384-0.848v-3.616zM19.424 19.008v-2.56q0-0.896 1.376-1.12h2.656q1.28 0.256 1.28 1.12v2.56q0 0.384-0.128 0.624t-0.544 0.4l1.088 0.896h-1.216l-0.832-0.768-0.928 0.096h-1.056q-0.192 0-0.32-0.048t-0.352-0.112q-1.024-0.192-1.024-1.088zM20.608 18.944v0.064q0.192 0.512 0.736 0.512h1.024l-0.896-0.832h1.216l0.832 0.736q0.064-0.064 0.112-0.16t0.144-0.16v-2.656q-0.096-0.16-0.256-0.288t-0.48-0.128h-1.696q-0.288 0-0.512 0.144t-0.224 0.368v2.4zM31.008 14.176q0-0.16-0.224-0.304t-0.352-0.208q-0.192-0.128-0.368-0.256t-0.368-0.224q-0.16-0.128-0.304-0.16t-0.304-0.096-0.448-0.128-0.352-0.192q-0.16-0.256-0.32-0.544t-0.288-0.608q-0.16-0.256-0.304-0.544t-0.272-0.608q-0.064-0.16-0.096-0.32t-0.128-0.256q-0.864-1.728-2.464-2.752-0.32-0.192-0.608-0.352t-0.64-0.256q-0.192-0.064-0.368-0.064h-0.528q-0.128-0.064-0.208-0.16t-0.176-0.192q-0.192-0.096-0.4-0.176t-0.464-0.176q-0.064 0-0.24-0.080t-0.24-0.016q-0.096 0.096-0.096 0.16-0.064 0.064-0.032 0.144t0.032 0.144q0.128 0.224 0.256 0.336t0.256 0.272q0.064 0.192 0.176 0.336t0.208 0.336q0.16 0.352 0.256 0.704t0.288 0.672q0.064 0.16 0.112 0.304t0.112 0.208q0.064 0.16 0.16 0.224t0.16 0.224q0.064 0.128-0.064 0.416t-0.192 0.48q-0.128 0.512-0.112 1.104t0.208 1.040q0.064 0.16 0.16 0.336t0.352 0.24v-0.064q0.064-0.32 0.080-0.624t0.176-0.624q0.064-0.16 0.144-0.256t0.144-0.256q0.16 0 0.176 0.096t0.016 0.16q0.064 0.192 0.16 0.4t0.16 0.432q0.256 0.352 0.448 0.736t0.448 0.736q0.288 0.256 0.416 0.48 0.128 0 0.256 0.192-0.192-0.064-0.32-0.208t-0.256-0.304q-0.672-0.384-1.056-1.056-0.096-0.192-0.176-0.368t-0.144-0.304v-0.064q-0.096 0.064-0.064 0.112t-0.064 0.112q-0.064 0.32-0.064 0.624t-0.224 0.368q-0.416 0.16-0.608-0.064t-0.32-0.32q-0.32-0.576-0.368-1.312t0.144-1.408q0.064-0.224 0.080-0.4t0.144-0.272q-0.064-0.128-0.112-0.16t-0.112-0.096q-0.096-0.128-0.16-0.256t-0.192-0.288q-0.16-0.256-0.224-0.528t-0.192-0.528q0-0.128-0.016-0.256t-0.080-0.224q-0.064-0.128-0.192-0.288t-0.224-0.288q-0.16-0.192-0.416-0.592t-0.064-0.72q0.128-0.288 0.384-0.352t0.544 0.016 0.576 0.208 0.48 0.224q0.064 0.064 0.16 0.144t0.16 0.144h0.672q0.256 0.064 0.528 0.144t0.432 0.208q1.056 0.608 1.776 1.296t1.328 1.776q0.224 0.32 0.448 0.896 0.16 0.384 0.352 0.736t0.32 0.672q0.16 0.192 0.208 0.336l0.112 0.336q0.064 0.064 0.176 0.080t0.176 0.080q0.256 0.064 0.448 0.128t0.448 0.192q0.288 0.256 0.656 0.512t0.656 0.576q0.128 0.064 0.192 0.208t0.224 0.208v0.064q-0.16 0.064-0.224 0.080t-0.192 0.080q-0.256 0.064-0.448 0.048t-0.352 0.048-0.288 0.112-0.32 0.048h0.096q0.064 0.256 0.384 0.432t0.544 0.304q0.256 0.192 0.432 0.384t0.368 0.448q0.096 0.032 0.224 0.224 0.096 0.064 0.112 0.112t0.080 0.112q-0.16-0.064-0.192-0.112t-0.128-0.112q-0.128-0.064-0.256-0.16t-0.256-0.16q-0.256-0.192-0.496-0.272t-0.496-0.208q-0.128-0.16-0.24-0.224t-0.24-0.192q-0.288-0.16-0.416-0.512-0.064-0.064-0.080-0.112t-0.112-0.112q0-0.16 0.144-0.176t0.208-0.016q0.32-0.16 0.704-0.192t0.864-0.032zM22.784 7.040q0.064 0.064 0.112 0.128t0.144 0.128v0.064q0 0.032 0.064 0.096 0 0.288-0.192 0.416h-0.064q0-0.128-0.048-0.192t-0.112-0.224l-0.128-0.128t-0.128-0.224q0.064 0 0.144-0.032t0.208-0.032z"></path>
</svg>
