<!-- Generated by IcoMoon.io -->
<svg version="1.1" xmlns="http://www.w3.org/2000/svg" width="32" height="32" viewBox="0 0 32 32">
<title>nginx</title>
<path d="M16.065 12.636c-0.135 0.049-0.241 0.133-0.325 0.259-0.136 0.197-0.136 0.204-0.145 1.307l-0.008 0.999h1.339l-0.005-1.029-0.005-1.028-0.069-0.143c-0.113-0.241-0.301-0.379-0.543-0.395-0.091-0.005-0.157 0.003-0.237 0.031v0zM0.797 12.717c-0.337 0.055-0.663 0.283-0.748 0.519-0.037 0.107-0.040 0.192-0.047 2.805-0.007 3.092-0.021 2.864 0.171 3.072 0.076 0.083 0.151 0.139 0.239 0.179 0.116 0.052 0.148 0.059 0.344 0.059 0.197 0 0.224-0.004 0.352-0.064 0.172-0.084 0.283-0.196 0.347-0.348l0.048-0.123 0.009-1.988 0.011-1.988 0.573 0.696c0.315 0.385 1.033 1.26 1.599 1.947 1.087 1.325 1.333 1.599 1.539 1.705 0.231 0.125 0.38 0.161 0.644 0.161 0.365 0 0.592-0.093 0.732-0.307 0.145-0.217 0.139-0.020 0.139-3.065v-2.733l-0.047-0.121c-0.065-0.161-0.203-0.299-0.363-0.361-0.093-0.036-0.161-0.048-0.315-0.051-0.227 0-0.315 0.023-0.472 0.116-0.131 0.079-0.229 0.225-0.264 0.389-0.015 0.065-0.024 0.764-0.024 2.085 0 1.095-0.005 1.988-0.013 1.985-0.013 0-2.889-3.469-3.313-3.997-0.208-0.255-0.372-0.409-0.515-0.477-0.176-0.083-0.455-0.127-0.627-0.099v0.004zM25.853 12.731c-0.204 0.053-0.377 0.2-0.472 0.4-0.033 0.069-0.049 0.143-0.056 0.277-0.008 0.161-0.003 0.208 0.041 0.336 0.101 0.287 0.136 0.328 1.135 1.333 0.524 0.525 0.949 0.965 0.949 0.972 0 0.012-0.425 0.451-0.949 0.973-1.016 1.023-1.055 1.068-1.144 1.36-0.064 0.215-0.047 0.453 0.045 0.625 0.237 0.444 0.767 0.512 1.291 0.161 0.049-0.031 0.513-0.481 1.029-0.996l0.937-0.933 0.936 0.933c0.516 0.515 0.979 0.965 1.029 0.996 0.244 0.164 0.508 0.248 0.711 0.224 0.264-0.032 0.463-0.163 0.58-0.385 0.092-0.172 0.108-0.409 0.044-0.625-0.088-0.292-0.128-0.337-1.144-1.36-0.524-0.524-0.949-0.963-0.949-0.973 0-0.008 0.425-0.448 0.949-0.972 1-1.007 1.033-1.048 1.137-1.335 0.044-0.131 0.049-0.176 0.041-0.336-0.005-0.135-0.020-0.208-0.056-0.28-0.149-0.312-0.479-0.473-0.831-0.408-0.067 0.011-0.209 0.064-0.319 0.116l-0.195 0.096-1.937 1.927-1.939-1.928-0.195-0.096c-0.271-0.132-0.469-0.164-0.677-0.108l0.007 0.005zM18.432 12.764c-0.2 0.047-0.364 0.177-0.449 0.365l-0.048 0.093v5.531l0.059 0.123c0.031 0.067 0.088 0.159 0.131 0.2 0.161 0.167 0.5 0.247 0.848 0.201 0.327-0.041 0.548-0.163 0.817-0.444 0.084-0.089 0.871-1.028 1.751-2.087l1.599-1.921 0.011 1.983 0.009 1.985 0.051 0.107c0.087 0.199 0.281 0.336 0.525 0.375 0.297 0.051 0.567-0.023 0.739-0.195 0.197-0.195 0.18 0.033 0.189-2.859 0.005-2.648 0.003-2.821-0.083-3.013-0.081-0.195-0.381-0.396-0.667-0.451-0.255-0.051-0.583 0.016-0.797 0.159-0.079 0.052-0.241 0.229-0.584 0.639-1.291 1.544-3.101 3.688-3.113 3.688-0.008 0.003-0.017-0.895-0.020-1.992-0.005-1.805-0.009-2-0.041-2.079-0.085-0.213-0.223-0.339-0.444-0.403-0.121-0.028-0.353-0.036-0.481-0.005v0zM8.924 12.848c-0.056 0.096-1.628 3-1.679 3.101l-0.031 0.064 0.916 1.647 0.916 1.649 3.835 0.009 0.943-1.735 0.943-1.739-0.728-0.013c-1.308-0.023-3.388-0.020-3.52 0.004-0.18 0.032-0.319 0.108-0.436 0.236-0.353 0.385-0.116 0.949 0.436 1.052 0.077 0.015 0.491 0.023 1.132 0.023h1.011l-0.315 0.517-0.313 0.517-2.113 0.012-0.58-1.044c-0.313-0.575-0.573-1.056-0.573-1.069 0-0.017 0.241-0.473 0.539-1.016l0.537-0.989h2.321l0.344 0.563 0.347 0.561 0.767 0.003h0.763l-0.028-0.047c-0.016-0.024-0.347-0.573-0.732-1.219l-0.705-1.173h-3.944l-0.051 0.088v-0.003zM15.595 17.305c0.009 1.456 0.009 1.473 0.053 1.604 0.065 0.195 0.172 0.323 0.34 0.409 0.175 0.088 0.347 0.097 0.519 0.020 0.139-0.060 0.295-0.228 0.359-0.384l0.047-0.117 0.011-2.976-0.201-0.011c-0.109-0.011-0.412-0.016-0.667-0.016h-0.468l0.005 1.471h0.003z"></path>
</svg>
