<!-- Generated by IcoMoon.io -->
<svg version="1.1" xmlns="http://www.w3.org/2000/svg" width="32" height="32" viewBox="0 0 32 32">
<title>nodejs</title>
<path d="M15.993 32c-0.427 0-0.853-0.111-1.231-0.328l-3.916-2.316c-0.584-0.327-0.297-0.444-0.105-0.511 0.78-0.269 0.939-0.332 1.771-0.805 0.088-0.049 0.201-0.029 0.292 0.024l3.008 1.785c0.111 0.061 0.263 0.061 0.364 0l11.727-6.768c0.109-0.061 0.179-0.189 0.179-0.316v-13.536c0-0.133-0.069-0.256-0.181-0.324l-11.723-6.763c-0.109-0.063-0.252-0.063-0.361 0l-11.719 6.765c-0.113 0.064-0.185 0.193-0.185 0.321v13.535c0 0.129 0.072 0.251 0.185 0.313l3.212 1.855c1.744 0.871 2.812-0.155 2.812-1.187v-13.363c0-0.189 0.152-0.337 0.34-0.337h1.487c0.187 0 0.34 0.148 0.34 0.337v13.364c0 2.325-1.267 3.661-3.472 3.661-0.677 0-1.212 0-2.701-0.736l-3.075-1.769c-0.76-0.439-1.231-1.259-1.231-2.139v-13.535c0-0.88 0.471-1.699 1.231-2.139l11.728-6.776c0.743-0.419 1.727-0.419 2.465 0l11.725 6.776c0.761 0.439 1.232 1.259 1.232 2.139v13.533c0 0.88-0.471 1.696-1.232 2.139l-11.725 6.769c-0.377 0.219-0.803 0.329-1.236 0.329h-0.004zM19.617 22.676c-5.135 0-6.208-2.357-6.208-4.332 0-0.189 0.149-0.337 0.336-0.337h1.517c0.168 0 0.311 0.121 0.336 0.287 0.229 1.543 0.909 2.323 4.017 2.323 2.468 0 3.521-0.56 3.521-1.868 0-0.756-0.296-1.316-4.137-1.693-3.209-0.317-5.195-1.027-5.195-3.592 0-2.367 1.996-3.779 5.34-3.779 3.757 0 5.613 1.304 5.851 4.103 0.008 0.095-0.027 0.188-0.091 0.26-0.064 0.068-0.153 0.109-0.248 0.109h-1.524c-0.157 0-0.296-0.112-0.329-0.265-0.365-1.625-1.253-2.141-3.664-2.141-2.697 0-3.011 0.937-3.011 1.643 0 0.852 0.371 1.103 4.013 1.584 3.604 0.475 5.316 1.149 5.316 3.683 0 2.556-2.129 4.019-5.844 4.019h0.003z"></path>
</svg>
