<!-- Generated by IcoMoon.io -->
<svg version="1.1" xmlns="http://www.w3.org/2000/svg" width="32" height="32" viewBox="0 0 32 32">
<title>npm</title>
<path d="M0 15.101v5.355h8.915v1.796h7.117v-1.796h15.968v-10.707h-31.999l-0.001 5.352zM8.913 15.101v3.559h-1.797v-5.323h-1.729v5.323h-3.656v-7.119h7.183v3.56zM17.815 15.107l-0.020 3.56-3.495-0.012v1.801h-3.655v-8.915h7.183l-0.013 3.565zM30.267 15.101v3.559h-1.796v-5.323h-1.796v5.356l-1.796-0.037v-5.317h-1.732v5.323h-3.591v-7.12h10.711v3.56zM14.3 15.101v1.763h1.667v-3.528h-1.667v1.765z"></path>
</svg>
