<!-- Generated by IcoMoon.io -->
<svg version="1.1" xmlns="http://www.w3.org/2000/svg" width="32" height="32" viewBox="0 0 32 32">
<title>php</title>
<path d="M32 14.88q0 1.696-1.264 3.184t-3.424 2.608-5.088 1.76-6.224 0.64q-3.328 0-6.24-0.64t-5.072-1.76-3.424-2.608-1.264-3.184q0-1.76 1.264-3.296t3.424-2.672 5.072-1.776 6.24-0.64q3.296 0 6.224 0.64t5.088 1.776 3.424 2.672 1.264 3.296zM6.752 19.264l0.416-2.016h1.792q0.608 0.032 1.232-0.208t1.136-0.72 0.832-1.184 0.32-1.6q0-0.992-0.576-1.584t-1.792-0.592h-3.68l-1.6 7.904h1.92zM7.616 15.744l0.448-2.944h1.344q0.448 0 0.8 0.208t0.352 0.656q-0.128 1.248-0.608 1.616t-1.184 0.464h-1.152zM14.816 17.248l0.896-4.736h1.568q0.544 0 0.624 0.208t0.016 0.656l-0.768 3.872h2.080l0.704-4.288q0.128-0.768-0.336-1.36t-1.68-0.592h-1.92l0.416-2.176h-2.048l-1.6 8.416h2.048zM21.248 19.552l0.48-2.208h1.888q0.672 0 1.328-0.24t1.168-0.72 0.832-1.2 0.32-1.648q0-1.12-0.544-1.744t-1.888-0.784h-3.872l-1.6 8.544h1.888zM22.176 15.744l0.576-3.072h1.312q1.184 0 1.184 0.864 0 1.312-0.56 1.728t-1.36 0.48h-1.152z"></path>
</svg>
