<!-- Generated by IcoMoon.io -->
<svg version="1.1" xmlns="http://www.w3.org/2000/svg" width="32" height="32" viewBox="0 0 32 32">
<title>postgresql</title>
<path d="M31.28 19.38c-0.341-0.396-0.925-0.288-1.377-0.199-1.084 0.195-2.261 0.419-3.312-0.032 1.876-2.96 3.349-6.191 4.175-9.6 0.3-1.296 0.532-2.621 0.488-3.956-0.032-0.748-0.137-1.543-0.592-2.161-1.131-1.489-2.768-2.575-4.573-3.060-2.255-0.611-4.673-0.429-6.891 0.256-0.183 0.037-0.364-0.045-0.543-0.068-2.013-0.409-4.232-0.248-5.977 0.917-2.096-0.755-4.348-1.209-6.579-0.976-1.659 0.172-3.324 0.944-4.276 2.356-1.204 1.763-1.367 4.013-1.175 6.079 0.387 2.743 1.056 5.444 1.907 8.077 0.56 1.64 1.177 3.296 2.175 4.731 0.507 0.703 1.18 1.415 2.085 1.525 0.805 0.097 1.533-0.403 2.028-0.995 0.853-1.020 1.732-2.023 2.643-2.995 0.595 0.292 1.24 0.46 1.9 0.509-0.359 0.424-0.653 0.977-1.221 1.144-0.767 0.296-1.665 0.256-2.34 0.767-0.391 0.279-0.409 0.887-0.059 1.207 0.633 0.613 1.565 0.747 2.408 0.817 1.193 0.092 2.4-0.309 3.305-1.092-0.005 1.897 0.003 3.801 0.217 5.688 0.107 1.105 0.583 2.208 1.424 2.951 0.792 0.692 1.923 0.836 2.928 0.661 0.987-0.189 2-0.484 2.772-1.159 0.82-0.723 1.169-1.815 1.333-2.861 0.295-1.876 0.517-3.76 0.731-5.647 2.109 0.356 4.496-0.048 6.075-1.588 0.335-0.317 0.653-0.867 0.321-1.297zM26.599 1.535c1.265 0.481 2.391 1.316 3.236 2.373 0.403 0.505 0.455 1.184 0.48 1.804 0.019 1.479-0.28 2.941-0.661 4.363-0.727 2.633-1.831 5.157-3.217 7.505-0.136 0.233-0.285 0.456-0.449 0.668-0.015-0.065-0.039-0.196-0.053-0.26 0.172-0.453 0.425-0.881 0.523-1.361 0.347-1.356 0.056-2.751-0.071-4.115-0.131-1.287 0.309-2.541 0.297-3.825 0.051-0.629-0.199-1.223-0.441-1.788-0.875-1.956-2.267-3.696-4.051-4.891-0.436-0.299-0.923-0.508-1.356-0.808 1.897-0.407 3.933-0.356 5.764 0.335v0zM25.441 12.516c0.111 1.524 0.553 3.16-0.164 4.605-0.964-1.917-2.209-3.747-2.641-5.88-0.123-0.679-0.153-1.537 0.449-2.011 0.764-0.543 1.764-0.42 2.649-0.367-0.037 1.223-0.413 2.421-0.291 3.652h-0.003zM8.224 21.543c-0.345 0.407-0.812 0.892-1.401 0.771-0.688-0.199-1.127-0.828-1.511-1.392-1.037-1.659-1.663-3.532-2.235-5.391-0.641-2.201-1.183-4.437-1.493-6.711-0.156-1.729-0.057-3.585 0.827-5.127 0.664-1.167 1.9-1.911 3.197-2.153 2.081-0.4 4.213 0.024 6.209 0.633-0.881 0.968-1.567 2.107-1.967 3.355-0.545 1.664-0.795 3.437-0.664 5.188 0.076 1.233 0.043 2.472-0.129 3.696-0.217 1.597 0.425 3.241 1.611 4.319-0.807 0.945-1.663 1.845-2.444 2.812v0zM10.045 15.82c-0.204-0.905 0.063-1.816 0.092-2.723 0.071-1.027-0.003-2.053-0.023-3.079 0.959-0.62 2.080-1.105 3.243-1.039 0.601 0.027 1.157 0.451 1.303 1.044 0.528 2.101 0.691 4.44-0.32 6.431-0.353 0.767-0.639 1.563-0.885 2.369-1.683 0.019-3.112-1.403-3.409-3.004v0zM15.277 21.444c-1.056 1.431-3.168 1.703-4.695 0.925 0.752-0.348 1.633-0.321 2.36-0.751 0.703-0.38 0.981-1.212 1.639-1.639 0.716-0.103 1.239 0.96 0.696 1.464v0zM24.331 19.773c-0.4 0.647-0.26 1.433-0.359 2.152-0.231 2.011-0.456 4.023-0.784 6.020-0.156 0.959-0.561 1.975-1.464 2.451-0.927 0.472-2.001 0.767-3.044 0.607-0.988-0.173-1.611-1.096-1.891-1.993-0.205-0.752-0.227-1.539-0.285-2.315-0.1-1.869-0.101-3.745-0.053-5.619 0.041-0.731-0.333-1.492-0.987-1.848-0.316-0.177-0.685-0.201-1.039-0.231 0.277-1.376 1.115-2.563 1.403-3.937 0.373-1.699 0.167-3.469-0.215-5.148-0.187-0.837-0.824-1.579-1.671-1.783-1.307-0.328-2.624 0.183-3.792 0.728 0.148-1.897 0.656-3.841 1.817-5.381 0.856-1.147 2.181-1.912 3.596-2.096 2.336-0.297 4.789 0.345 6.645 1.807 1.533 1.212 2.745 2.855 3.397 4.7-1.084-0.039-2.316-0.083-3.195 0.672-0.796 0.671-0.899 1.816-0.72 2.777 0.416 2.288 1.765 4.232 2.76 6.291 0.265 0.48 0.621 0.903 0.96 1.335-0.403 0.203-0.852 0.399-1.083 0.812h0.001zM27.125 21.392c-0.717 0.084-1.463 0.109-2.153-0.127 0.003-0.392-0.020-0.856 0.295-1.148 0.251-0.184 0.603-0.353 0.892-0.152 1.223 0.643 2.645 0.329 3.947 0.171-0.796 0.777-1.896 1.137-2.98 1.256zM23.365 9.517c-0.253 0.209 0.020 0.523 0.239 0.62 0.531 0.311 1.259-0.124 1.276-0.731-0.48-0.223-1.080-0.2-1.515 0.111v0zM13.975 10.484c0.225-0.128 0.465-0.48 0.203-0.692-0.372-0.304-0.915-0.361-1.368-0.239-0.147 0.051-0.3 0.151-0.271 0.329 0.105 0.611 0.92 0.98 1.436 0.601v0z"></path>
</svg>
