<!-- Generated by IcoMoon.io -->
<svg version="1.1" xmlns="http://www.w3.org/2000/svg" width="32" height="32" viewBox="0 0 32 32">
<title>redis</title>
<path d="M14.276 3.148c0 0.009 0.151 0.296 0.341 0.647 0.184 0.344 0.32 0.64 0.3 0.655-0.021 0.015-0.543 0.213-1.161 0.432-0.621 0.223-1.12 0.413-1.112 0.423 0.009 0.008 0.715 0.081 1.565 0.16 1.025 0.097 1.563 0.165 1.601 0.203 0.032 0.033 0.265 0.415 0.525 0.836l0.461 0.777 0.084-0.195c0.043-0.103 0.184-0.443 0.315-0.748l0.229-0.557 1.231-0.131c0.676-0.073 1.277-0.131 1.34-0.131 0.060-0.004 0.107-0.019 0.107-0.044 0-0.020-0.456-0.208-1.020-0.417-0.559-0.208-1.020-0.388-1.020-0.393 0-0.004 0.121-0.3 0.265-0.655 0.147-0.355 0.257-0.655 0.249-0.665-0.011-0.015-0.485 0.131-1.048 0.316l-1.028 0.335-1.093-0.435c-1.075-0.421-1.133-0.44-1.132-0.412v0zM21.060 6.841c-1.307 0.519-2.379 0.951-2.389 0.961-0.012 0.011 0.963 0.403 2.16 0.88l2.175 0.859 0.235-0.092c2.421-0.943 4.627-1.82 4.616-1.831-0.032-0.039-4.32-1.717-4.369-1.717-0.032 0.004-1.125 0.427-2.425 0.943v-0.003zM8.523 6.336c-1.253 0.132-2.305 0.497-2.752 0.959-0.305 0.315-0.355 0.584-0.165 0.907 0.28 0.485 1.205 0.895 2.481 1.103 0.573 0.097 2.256 0.083 2.84-0.019 1.365-0.237 2.249-0.673 2.456-1.223 0.079-0.204 0.079-0.233 0-0.432-0.203-0.535-1.073-0.976-2.359-1.2-0.651-0.112-1.865-0.156-2.501-0.095zM31.857 7.847c-0.063 0.081-0.295 0.267-0.519 0.417-0.661 0.427-1.515 0.815-6.816 3.097-3.731 1.603-4.68 2.024-5.972 2.645-1.431 0.685-2.024 0.875-2.744 0.875-0.647 0-1.029-0.112-2.235-0.647-0.481-0.215-2.448-1.039-4.368-1.839-8.407-3.496-8.56-3.569-9.013-4.055l-0.188-0.209v3.307l0.215 0.204c0.203 0.199 0.9 0.616 1.145 0.689 0.068 0.019 0.525 0.208 1.020 0.421 0.496 0.213 2.908 1.224 5.365 2.249 4.063 1.695 4.991 2.084 6.373 2.691 0.733 0.325 1.14 0.407 1.831 0.384 0.505-0.020 0.655-0.049 1.097-0.2 0.287-0.096 0.781-0.305 1.101-0.465 1.053-0.528 2.331-1.092 7.416-3.283 4.781-2.063 5.404-2.349 5.923-2.708 0.535-0.38 0.511-0.287 0.511-2.128 0-0.88-0.004-1.597-0.015-1.597-0.012 0-0.063 0.067-0.127 0.151h-0.001zM15.116 10.003c-1.956 0.301-3.579 0.559-3.608 0.569-0.043 0.015 4.876 2.083 5.084 2.136 0.048 0.015 2.248-3.151 2.248-3.233 0-0.045 0.005-0.049-3.724 0.528zM31.885 13.276c-0.043 0.073-0.248 0.252-0.447 0.392-0.636 0.437-1.591 0.873-7.407 3.375-3.344 1.443-4.395 1.904-5.388 2.389-1.612 0.781-2 0.908-2.864 0.903-0.671-0.004-1.083-0.111-1.972-0.515-0.855-0.392-1.811-0.796-5.652-2.388-6.681-2.773-7.452-3.119-7.923-3.575l-0.233-0.219v3.252l0.263 0.249c0.427 0.397 0.384 0.379 7.553 3.364 2.632 1.093 5.112 2.136 5.512 2.316 1.057 0.479 1.363 0.588 1.781 0.676 0.976 0.199 1.699 0.037 3.283-0.733 1.028-0.5 2.285-1.059 5.332-2.368 5.785-2.497 7.213-3.137 7.635-3.419 0.152-0.108 0.356-0.276 0.457-0.388l0.181-0.2v-1.627c0-0.893-0.005-1.627-0.016-1.627-0.004 0-0.048 0.063-0.096 0.14v0.001zM31.832 18.6c-0.383 0.481-1.148 0.851-7.117 3.417-3.895 1.68-5.080 2.204-6.36 2.817-1.345 0.64-1.785 0.776-2.565 0.776-0.528 0-1.068-0.125-1.663-0.388-1.395-0.611-2.312-1-6.381-2.695-4.628-1.928-6.107-2.553-6.603-2.801-0.463-0.233-0.931-0.564-1.040-0.732l-0.101-0.155v1.655c0 1.897-0.032 1.757 0.476 2.103 0.563 0.379 1.399 0.748 6.955 3.053 3.884 1.612 5.281 2.2 5.972 2.511 1.409 0.633 1.78 0.733 2.568 0.691 0.719-0.035 1.191-0.191 2.433-0.781 1.295-0.621 2.251-1.048 6.48-2.872 5.875-2.529 6.511-2.833 6.957-3.349l0.156-0.175v-1.621c0-0.895-0.004-1.627-0.011-1.627-0.012-0.001-0.076 0.077-0.156 0.173z"></path>
</svg>
