<!-- Generated by IcoMoon.io -->
<svg version="1.1" xmlns="http://www.w3.org/2000/svg" width="43" height="32" viewBox="0 0 43 32">
<title>sass</title>
<path d="M36.74 18.392c-1.492 0.008-2.784 0.366-3.868 0.9-0.396-0.791-0.797-1.486-0.865-2.004-0.079-0.604-0.17-0.964-0.075-1.683s0.511-1.738 0.505-1.814c-0.006-0.076-0.093-0.443-0.954-0.449s-1.597 0.166-1.683 0.393c-0.087 0.227-0.252 0.739-0.355 1.272-0.151 0.78-1.718 3.563-2.608 5.019-0.291-0.568-0.538-1.069-0.59-1.466-0.079-0.604-0.17-0.964-0.075-1.683s0.511-1.738 0.505-1.814c-0.006-0.076-0.093-0.443-0.954-0.449s-1.597 0.166-1.683 0.393c-0.087 0.227-0.179 0.758-0.355 1.272s-2.26 5.156-2.806 6.36c-0.278 0.613-0.52 1.106-0.691 1.442-0-0.001-0.001-0.002-0.001-0.002s-0.010 0.022-0.029 0.060c-0.146 0.286-0.233 0.445-0.233 0.445s0.001 0.002 0.003 0.006c-0.116 0.21-0.24 0.406-0.302 0.406-0.043 0-0.129-0.56 0.019-1.328 0.31-1.611 1.055-4.122 1.047-4.208-0.004-0.044 0.139-0.482-0.486-0.711-0.607-0.222-0.824 0.148-0.879 0.15-0.054 0.001-0.093 0.131-0.093 0.131s0.677-2.824-1.291-2.824c-1.23 0-2.934 1.345-3.774 2.565-0.53 0.289-1.663 0.908-2.866 1.569-0.462 0.254-0.933 0.513-1.38 0.759-0.030-0.034-0.061-0.067-0.092-0.101-2.386-2.545-6.795-4.345-6.608-7.767 0.068-1.244 0.5-4.519 8.473-8.492 6.531-3.255 11.759-2.359 12.663-0.374 1.291 2.836-2.794 8.106-9.577 8.866-2.584 0.29-3.945-0.712-4.283-1.085-0.356-0.393-0.409-0.41-0.542-0.337-0.217 0.12-0.079 0.467 0 0.673 0.203 0.527 1.034 1.462 2.45 1.927 1.246 0.409 4.28 0.634 7.95-0.786 4.109-1.59 7.319-6.012 6.376-9.708-0.959-3.759-7.192-4.995-13.091-2.899-3.511 1.247-7.312 3.205-10.044 5.761-3.249 3.039-3.767 5.684-3.554 6.79 0.759 3.927 6.172 6.485 8.339 8.38-0.107 0.059-0.207 0.114-0.299 0.165-1.087 0.538-5.213 2.697-6.245 4.979-1.171 2.588 0.186 4.445 1.085 4.695 2.784 0.775 5.64-0.619 7.176-2.909s1.347-5.27 0.643-6.631c-0.009-0.017-0.018-0.033-0.027-0.050 0.281-0.166 0.567-0.335 0.85-0.501 0.553-0.325 1.096-0.628 1.567-0.884-0.264 0.722-0.457 1.588-0.557 2.839-0.118 1.469 0.484 3.368 1.272 4.115 0.347 0.329 0.764 0.337 1.029 0.337 0.917 0 1.335-0.763 1.796-1.665 0.565-1.106 1.066-2.394 1.066-2.394s-0.629 3.479 1.085 3.479c0.624 0 1.253-0.81 1.533-1.223 0.001 0.005 0.001 0.007 0.001 0.007s0.016-0.027 0.048-0.081c0.065-0.099 0.102-0.162 0.102-0.162s0.001-0.006 0.003-0.018c0.251-0.436 0.808-1.43 1.643-3.068 1.079-2.117 2.114-4.77 2.114-4.77s0.096 0.648 0.412 1.721c0.186 0.631 0.579 1.329 0.89 1.997-0.25 0.347-0.404 0.547-0.404 0.547s0.001 0.004 0.004 0.010c-0.2 0.265-0.424 0.552-0.659 0.831-0.852 1.014-1.866 2.172-2.001 2.506-0.16 0.394-0.122 0.683 0.187 0.916 0.226 0.17 0.628 0.197 1.047 0.168 0.765-0.052 1.304-0.241 1.569-0.357 0.414-0.146 0.896-0.377 1.349-0.709 0.835-0.614 1.339-1.492 1.291-2.656-0.027-0.641-0.231-1.277-0.49-1.877 0.076-0.109 0.152-0.219 0.228-0.33 1.317-1.925 2.338-4.040 2.338-4.040s0.096 0.648 0.412 1.721c0.159 0.543 0.474 1.135 0.757 1.716-1.238 1.006-2.006 2.175-2.273 2.942-0.493 1.418-0.107 2.061 0.617 2.207 0.328 0.066 0.791-0.084 1.14-0.232 0.434-0.144 0.955-0.383 1.441-0.741 0.835-0.614 1.638-1.474 1.59-2.637-0.022-0.53-0.166-1.056-0.361-1.561 1.049-0.437 2.408-0.68 4.139-0.478 3.713 0.434 4.441 2.752 4.302 3.722s-0.918 1.504-1.178 1.665c-0.26 0.161-0.34 0.217-0.318 0.337 0.032 0.174 0.152 0.167 0.374 0.13 0.306-0.052 1.95-0.789 2.020-2.58 0.089-2.274-2.089-4.771-5.948-4.751zM8.121 28.040c-1.23 1.342-2.948 1.849-3.685 1.422-0.796-0.461-0.48-2.436 1.029-3.86 0.92-0.868 2.107-1.667 2.895-2.159 0.179-0.108 0.443-0.266 0.763-0.458 0.053-0.030 0.083-0.047 0.083-0.047l-0.001-0.002c0.062-0.037 0.125-0.075 0.19-0.114 0.549 2.027 0.017 3.811-1.274 5.219zM17.081 21.95c-0.428 1.044-1.325 3.716-1.87 3.573-0.468-0.123-0.754-2.154-0.094-4.152 0.332-1.006 1.042-2.208 1.459-2.675 0.671-0.751 1.41-0.996 1.59-0.692 0.229 0.388-0.816 3.292-1.085 3.947zM24.483 25.482c-0.182 0.095-0.348 0.155-0.425 0.109-0.057-0.034 0.075-0.159 0.075-0.159s0.926-0.996 1.291-1.45c0.212-0.264 0.458-0.577 0.726-0.927 0.002 0.035 0.003 0.070 0.003 0.104-0.003 1.193-1.156 1.999-1.67 2.323zM30.186 24.182c-0.135-0.096-0.113-0.408 0.333-1.378 0.175-0.381 0.574-1.023 1.268-1.636 0.080 0.252 0.129 0.494 0.128 0.719-0.009 1.502-1.080 2.062-1.728 2.295z"></path>
</svg>
