<!-- Generated by IcoMoon.io -->
<svg version="1.1" xmlns="http://www.w3.org/2000/svg" width="32" height="32" viewBox="0 0 32 32">
<title>sass-seal</title>
<path d="M25.057 17.372c-0.881 0.005-1.645 0.216-2.285 0.531-0.234-0.466-0.471-0.877-0.511-1.182-0.046-0.356-0.1-0.569-0.044-0.993s0.302-1.025 0.298-1.070-0.055-0.261-0.564-0.265c-0.508-0.004-0.943 0.098-0.994 0.232s-0.149 0.436-0.21 0.75c-0.089 0.46-1.015 2.102-1.541 2.96-0.172-0.335-0.318-0.631-0.349-0.864-0.046-0.356-0.1-0.569-0.044-0.993s0.302-1.025 0.298-1.070-0.055-0.261-0.564-0.265c-0.508-0.004-0.943 0.098-0.994 0.232s-0.106 0.447-0.21 0.75c-0.104 0.303-1.335 3.041-1.657 3.751-0.164 0.362-0.307 0.652-0.408 0.851-0-0-0.001-0.001-0.001-0.001s-0.006 0.013-0.017 0.035c-0.086 0.169-0.138 0.262-0.138 0.262s0.001 0.001 0.002 0.003c-0.069 0.124-0.142 0.239-0.178 0.239-0.025 0-0.076-0.33 0.011-0.783 0.183-0.95 0.623-2.431 0.619-2.482-0.002-0.026 0.082-0.284-0.287-0.419-0.359-0.131-0.487 0.088-0.519 0.088s-0.055 0.077-0.055 0.077 0.4-1.666-0.762-1.666c-0.727 0-1.733 0.793-2.229 1.513-0.313 0.17-0.983 0.535-1.693 0.925-0.273 0.15-0.551 0.303-0.815 0.448-0.018-0.020-0.036-0.040-0.054-0.059-1.409-1.501-4.014-2.563-3.903-4.58 0.040-0.734 0.296-2.665 5.005-5.008 3.858-1.919 6.946-1.391 7.48-0.221 0.762 1.672-1.651 4.78-5.657 5.229-1.527 0.171-2.33-0.42-2.53-0.64-0.21-0.232-0.242-0.242-0.32-0.199-0.128 0.071-0.047 0.275 0 0.397 0.12 0.311 0.611 0.862 1.447 1.136 0.736 0.241 2.528 0.374 4.696-0.463 2.428-0.937 4.323-3.545 3.766-5.725-0.566-2.217-4.248-2.946-7.733-1.71-2.074 0.736-4.319 1.89-5.933 3.398-1.919 1.792-2.225 3.352-2.099 4.004 0.448 2.316 3.646 3.824 4.926 4.942-0.063 0.035-0.122 0.067-0.176 0.097-0.642 0.317-3.079 1.591-3.689 2.936-0.692 1.526 0.11 2.621 0.641 2.769 1.644 0.457 3.332-0.365 4.239-1.715s0.796-3.108 0.38-3.911c-0.005-0.010-0.011-0.020-0.016-0.030 0.166-0.098 0.335-0.198 0.502-0.296 0.327-0.192 0.647-0.37 0.926-0.521-0.156 0.426-0.27 0.937-0.329 1.674-0.070 0.866 0.286 1.986 0.751 2.427 0.205 0.194 0.451 0.198 0.608 0.198 0.542 0 0.789-0.45 1.061-0.982 0.334-0.652 0.63-1.412 0.63-1.412s-0.372 2.052 0.641 2.052c0.369 0 0.74-0.478 0.905-0.721 0 0.003 0.001 0.004 0.001 0.004s0.010-0.016 0.028-0.048c0.038-0.058 0.060-0.096 0.060-0.096s0.001-0.004 0.002-0.011c0.148-0.257 0.477-0.843 0.97-1.81 0.637-1.249 1.248-2.813 1.248-2.813s0.057 0.382 0.243 1.015c0.11 0.372 0.342 0.783 0.526 1.178-0.148 0.205-0.239 0.322-0.239 0.322s0.001 0.002 0.002 0.006c-0.118 0.157-0.251 0.326-0.389 0.49-0.503 0.598-1.102 1.281-1.182 1.478-0.095 0.232-0.072 0.403 0.11 0.541 0.133 0.1 0.371 0.116 0.619 0.099 0.452-0.030 0.77-0.142 0.927-0.21 0.245-0.086 0.529-0.222 0.797-0.418 0.493-0.362 0.791-0.88 0.762-1.566-0.016-0.378-0.137-0.753-0.289-1.107 0.045-0.064 0.090-0.129 0.135-0.195 0.778-1.135 1.381-2.383 1.381-2.383s0.057 0.382 0.243 1.015c0.094 0.32 0.28 0.669 0.447 1.012-0.731 0.593-1.185 1.283-1.342 1.735-0.291 0.836-0.063 1.215 0.365 1.302 0.194 0.039 0.467-0.050 0.673-0.137 0.256-0.085 0.564-0.226 0.851-0.437 0.493-0.362 0.968-0.869 0.939-1.555-0.013-0.312-0.098-0.622-0.213-0.92 0.62-0.258 1.423-0.401 2.445-0.282 2.193 0.256 2.624 1.623 2.541 2.195s-0.542 0.887-0.696 0.982c-0.154 0.095-0.201 0.128-0.188 0.199 0.019 0.103 0.090 0.099 0.221 0.077 0.181-0.030 1.152-0.465 1.193-1.522 0.053-1.341-1.234-2.814-3.514-2.802zM8.151 23.062c-0.726 0.791-1.741 1.090-2.177 0.838-0.47-0.272-0.284-1.437 0.608-2.277 0.543-0.512 1.245-0.983 1.71-1.273 0.106-0.064 0.261-0.157 0.451-0.27 0.031-0.018 0.049-0.028 0.049-0.028l-0.001-0.001c0.037-0.022 0.074-0.044 0.113-0.067 0.324 1.195 0.010 2.247-0.753 3.078zM13.444 19.47c-0.253 0.616-0.783 2.191-1.105 2.107-0.277-0.073-0.445-1.27-0.055-2.449 0.196-0.593 0.616-1.302 0.862-1.577 0.396-0.443 0.833-0.588 0.939-0.408 0.135 0.229-0.482 1.941-0.641 2.328zM17.816 21.553c-0.107 0.056-0.206 0.091-0.251 0.064-0.034-0.020 0.044-0.094 0.044-0.094s0.547-0.587 0.762-0.855c0.125-0.156 0.271-0.34 0.429-0.547 0.001 0.021 0.002 0.041 0.002 0.061-0.002 0.704-0.683 1.179-0.986 1.37zM21.185 20.787c-0.080-0.057-0.067-0.241 0.196-0.813 0.103-0.225 0.339-0.603 0.749-0.965 0.047 0.149 0.076 0.291 0.076 0.424-0.005 0.886-0.638 1.216-1.021 1.354zM32 16c0 8.837-7.163 16-16 16s-16-7.163-16-16 7.163-16 16-16 16 7.163 16 16z"></path>
</svg>
