<!-- Generated by IcoMoon.io -->
<svg version="1.1" xmlns="http://www.w3.org/2000/svg" width="32" height="32" viewBox="0 0 32 32">
<title>sqllite</title>
<path d="M21.739 0.695c-1.375-1.225-3.040-0.733-4.684 0.725-0.244 0.217-0.487 0.457-0.728 0.713-2.811 2.983-5.42 8.507-6.232 12.725 0.316 0.64 0.563 1.457 0.725 2.083 0.041 0.159 0.079 0.311 0.109 0.437 0.072 0.303 0.109 0.5 0.109 0.5s-0.024-0.096-0.128-0.396c-0.020-0.059-0.041-0.121-0.067-0.195-0.012-0.031-0.027-0.068-0.044-0.108-0.184-0.427-0.691-1.327-0.915-1.717-0.191 0.564-0.36 1.089-0.5 1.567 0.644 1.179 1.036 3.2 1.036 3.2s-0.033-0.131-0.195-0.588c-0.144-0.404-0.86-1.66-1.029-1.952-0.291 1.072-0.405 1.795-0.301 1.971 0.201 0.341 0.393 0.931 0.563 1.581 0.381 1.467 0.647 3.251 0.647 3.251s0.008 0.119 0.024 0.301c-0.053 1.232-0.021 2.508 0.075 3.664 0.127 1.528 0.363 2.84 0.667 3.543l0.207-0.113c-0.445-1.384-0.627-3.197-0.548-5.289 0.12-3.197 0.856-7.053 2.216-11.072 2.297-6.067 5.483-10.935 8.399-13.259-2.659 2.401-6.256 10.172-7.333 13.048-1.207 3.223-2.060 6.248-2.575 9.143 0.889-2.715 3.761-3.883 3.761-3.883s1.409-1.739 3.056-4.22c-0.987 0.224-2.605 0.611-3.148 0.837-0.801 0.336-1.017 0.451-1.017 0.451s2.592-1.577 4.816-2.293c3.059-4.816 6.391-11.66 3.035-14.655z"></path>
</svg>
