<!-- Generated by IcoMoon.io -->
<svg version="1.1" xmlns="http://www.w3.org/2000/svg" width="32" height="32" viewBox="0 0 32 32">
<title>symfony</title>
<path d="M31.999 15.999c0 8.837-7.163 16.001-15.999 16.001s-15.999-7.164-15.999-16.001c0-8.836 7.163-15.999 15.999-15.999s15.999 7.163 15.999 15.999zM22.996 5.917c-1.627 0.056-3.044 0.953-4.101 2.192-1.169 1.359-1.948 2.971-2.508 4.616-1.003-0.821-1.776-1.885-3.384-2.349-1.244-0.357-2.548-0.211-3.752 0.684-0.568 0.425-0.96 1.068-1.145 1.671-0.483 1.569 0.505 2.967 0.957 3.468l0.983 1.052c0.203 0.205 0.689 0.745 0.452 1.519-0.257 0.84-1.271 1.385-2.308 1.064-0.465-0.144-1.132-0.489-0.98-0.975 0.061-0.199 0.203-0.348 0.281-0.52 0.069-0.149 0.103-0.259 0.125-0.324 0.189-0.62-0.069-1.425-0.733-1.631-0.62-0.191-1.252-0.041-1.499 0.756-0.279 0.905 0.155 2.548 2.475 3.267 2.72 0.835 5.021-0.645 5.348-2.576 0.205-1.209-0.341-2.109-1.343-3.264l-0.813-0.901c-0.495-0.495-0.663-1.333-0.152-1.98 0.431-0.545 1.045-0.777 2.051-0.504 1.469 0.397 2.123 1.417 3.215 2.24-0.452 1.479-0.745 2.964-1.013 4.296l-0.163 0.993c-0.781 4.095-1.377 6.343-2.927 7.635-0.312 0.223-0.757 0.555-1.431 0.58-0.352 0.011-0.467-0.232-0.472-0.34-0.009-0.247 0.199-0.359 0.34-0.472 0.205-0.113 0.519-0.301 0.497-0.897-0.024-0.711-0.611-1.325-1.459-1.295-0.636 0.020-1.604 0.619-1.569 1.715 0.039 1.129 1.092 1.979 2.683 1.923 0.849-0.029 2.749-0.375 4.619-2.597 2.179-2.549 2.787-5.472 3.245-7.611l0.511-2.824c0.285 0.033 0.588 0.056 0.919 0.065 2.711 0.057 4.067-1.348 4.087-2.368 0.013-0.617-0.407-1.227-0.992-1.213-0.419 0.013-0.947 0.292-1.073 0.872-0.124 0.569 0.861 1.084 0.091 1.584-0.547 0.355-1.529 0.605-2.915 0.401l0.251-1.389c0.515-2.635 1.147-5.876 3.548-5.955 0.176-0.008 0.815 0.007 0.831 0.432 0.004 0.141-0.029 0.177-0.197 0.501-0.168 0.251-0.232 0.467-0.224 0.713 0.024 0.673 0.536 1.115 1.276 1.088 0.989-0.032 1.275-0.997 1.259-1.493-0.041-1.165-1.271-1.901-2.895-1.849h0.007z"></path>
</svg>
