<!-- Generated by IcoMoon.io -->
<svg version="1.1" xmlns="http://www.w3.org/2000/svg" width="32" height="32" viewBox="0 0 32 32">
<title>vivaldi</title>
<path d="M1.055 0c-0.581 0-1.055 0.473-1.055 1.055v0 29.891c0 0.581 0.473 1.055 1.055 1.055v0h29.891c0.581 0 1.055-0.473 1.055-1.055v0-29.891c0-0.581-0.473-1.055-1.055-1.055v0h-29.891zM22.443 9.657c-0.926-1.852 0.060-3.929 2.076-4.375 1.64-0.362 3.338 0.842 3.555 2.505 0.095 0.731-0.050 1.4-0.413 2.029-2.989 5.183-5.982 10.364-8.967 15.55-0.555 0.963-1.361 1.546-2.467 1.626-1.239 0.090-2.212-0.431-2.837-1.504-1.892-3.248-3.762-6.51-5.641-9.766-1.143-1.982-2.289-3.961-3.427-5.945-1.148-2.001 0.147-4.434 2.449-4.552 1.216-0.062 2.154 0.497 2.771 1.551 0.844 1.441 1.671 2.892 2.506 4.338 0.602 1.042 1.192 2.090 1.81 3.122 0.896 1.496 2.213 2.339 3.967 2.445 2.482 0.148 4.786-1.646 5.084-4.281 0.022-0.197 0.037-0.394 0.046-0.494-0.014-0.852-0.173-1.571-0.512-2.248z"></path>
</svg>
