<!-- Generated by IcoMoon.io -->
<svg version="1.1" xmlns="http://www.w3.org/2000/svg" width="32" height="32" viewBox="0 0 32 32">
<title>w3c</title>
<path d="M30.901 8.699l-0.62 1.236-0.083-0.144c-0.139-0.237-0.433-0.677-0.597-0.881-0.441-0.549-1.043-0.952-1.652-1.104-0.244-0.060-0.719-0.061-0.94-0.001-0.435 0.119-0.849 0.373-1.235 0.761-0.46 0.461-0.836 1.077-1.149 1.877-0.347 0.877-0.523 1.743-0.581 2.869-0.064 1.225 0.107 2.415 0.491 3.448 0.097 0.251 0.227 0.556 0.237 0.547 0.004-0.003-0.008-0.068-0.021-0.145-0.092-0.48-0.131-1.451-0.087-2.143 0.049-0.72 0.189-1.403 0.46-2.239 0.279-0.865 0.608-1.435 1.143-1.985 0.539-0.553 1.023-0.797 1.659-0.833 0.456-0.024 0.807 0.091 1.312 0.427 0.477 0.321 0.921 0.825 1.283 1.464 0.056 0.096 0.108 0.167 0.115 0.159 0.028-0.032 1.228-2.345 1.236-2.381 0.007-0.032-0.316-2.072-0.34-2.145-0.003-0.009-0.285 0.539-0.628 1.217h-0.001zM0.011 7.605c0.005 0.025 1.135 3.835 2.508 8.472l2.496 8.429h0.224l1.563-5.233c0.859-2.88 1.568-5.237 1.573-5.237 0.004 0 0.713 2.357 1.573 5.237l1.561 5.233h0.221l2.151-7.257c2.121-7.163 2.152-7.259 2.248-7.425l0.099-0.171h3.547l-0.065 0.107c-0.035 0.060-0.695 1.2-1.465 2.536l-1.404 2.425v1.009h0.552c0.584 0 0.832 0.017 1.127 0.076 1.091 0.223 1.799 0.94 2.053 2.091 0.145 0.639 0.161 1.421 0.048 2.084-0.177 1.045-0.697 1.935-1.333 2.273-0.255 0.137-0.377 0.164-0.735 0.16-0.271 0-0.333-0.008-0.491-0.049-0.424-0.113-0.705-0.277-1.041-0.621-0.331-0.333-0.56-0.679-0.784-1.173-0.059-0.127-0.1-0.203-0.116-0.197-0.023 0.007-1.384 0.568-1.599 0.66l-0.091 0.037 0.076 0.209c0.464 1.297 1.309 2.328 2.332 2.837 0.483 0.244 0.943 0.364 1.505 0.395 0.993 0.057 1.891-0.199 2.619-0.752 0.205-0.153 0.569-0.508 0.74-0.721 0.679-0.837 1.075-1.789 1.237-2.973 0.053-0.404 0.068-1.257 0.028-1.684-0.167-1.749-0.917-3.128-2.128-3.919-0.235-0.153-0.611-0.34-0.895-0.445-0.119-0.045-0.225-0.088-0.231-0.095-0.007-0.008 0.679-1.209 1.528-2.673l1.544-2.661v-1.025h-8.233l-1.515 5.147c-0.832 2.831-1.516 5.145-1.523 5.145-0.008 0-0.648-2.173-1.427-4.832-0.783-2.656-1.463-4.971-1.513-5.145l-0.097-0.315h-1.097c-1.039 0-1.097 0.001-1.088 0.032 0.007 0.019 0.232 0.777 0.5 1.683l0.489 1.648-1.021 3.465c-0.561 1.907-1.024 3.463-1.029 3.463-0.008 0-0.691-2.316-1.524-5.145l-1.513-5.147h-2.195l0.009 0.041 0.001 0.003zM23.273 19.46c0 0.032 0.307 0.928 0.389 1.135 0.108 0.283 0.395 0.867 0.571 1.172 0.313 0.54 0.711 1.067 1.111 1.467 0.659 0.667 1.317 1.028 2.124 1.169 0.189 0.031 0.867 0.031 1.055 0 0.56-0.1 1.052-0.305 1.485-0.623 0.751-0.548 1.397-1.299 1.876-2.179l0.116-0.209-0.157-0.819c-0.087-0.453-0.159-0.827-0.167-0.833-0.003-0.003-0.084 0.127-0.184 0.289-0.227 0.384-0.489 0.78-0.649 0.983-0.072 0.088-0.268 0.297-0.44 0.471-0.483 0.484-0.856 0.767-1.304 0.976-0.664 0.316-1.156 0.42-1.773 0.377-0.44-0.031-0.691-0.087-1.065-0.237-0.547-0.217-0.961-0.503-1.509-1.039-0.487-0.481-0.697-0.771-1.256-1.741-0.215-0.368-0.224-0.385-0.224-0.363l0.003 0.004z"></path>
</svg>
