<!-- Generated by IcoMoon.io -->
<svg version="1.1" xmlns="http://www.w3.org/2000/svg" width="32" height="32" viewBox="0 0 32 32">
<title>yii</title>
<path d="M26.995 0c-3.632 0.136-8.049 4.7-6.539 8.955 1.6 4.223 2.624 7.225 2.839 11.937 3.839-3.863 7.365-8.056 7.651-12.923 0.093-3.948-1.775-6.86-3.951-7.969v0zM17.415 17.532c-0.547 0.975-1.261 2.033-2.195 3.193-1.96 2.471-3.937 6.524-3.328 11.275 8.097-0.893 10.625-6.972 10.849-10.311-1.527-2.304-4.296-3.721-5.327-4.157zM1.084 2.953c-0.288 3.717 1.303 9.244 7.748 11.003 2.715 0.803 4.616 1.299 6.673 2.047 3.009 1.095 5.373 2.491 7.245 4.899-0.348-4.144-2.056-8.896-4.781-12.601-3.891-5.287-10.628-7.825-16.885-5.347v0z"></path>
</svg>
